<?xml version="1.0" encoding="utf-8"?>
<!-- Generator: Adobe Illustrator 24.2.3, SVG Export Plug-In . SVG Version: 6.00 Build 0)  -->
<svg version="1.1" id="gene2info" xmlns="http://www.w3.org/2000/svg" xmlns:xlink="http://www.w3.org/1999/xlink" x="0px" y="0px"
	 viewBox="0 0 580.3 181.95" style="enable-background:new 0 0 580.3 181.95;" xml:space="preserve">
<style type="text/css">
	.st0{fill:#CF3828;}
	.st1{fill:#414042;}
	.st2{fill:#F58232;}
	.st3{fill:#EF4130;}
	.st4{fill:#27688F;}
	.st5{fill:#008B91;}
</style>
<path class="st0" d="M381.42,104.84c0-13.8,12.24-22.8,23.88-31.08c10.68-7.68,21.72-14.64,21.72-24.24
	c0-9.24-6.72-15.84-17.88-15.84c-9,0-15.96,5.28-19.92,12.84l-8.16-4.32c4.92-9.72,15.48-16.92,27.96-16.92
	c16.68,0,27.6,11.04,27.6,24.36c0,13.44-12.72,22.08-24.24,30.24c-10.8,7.56-21.12,14.76-21.12,24.96v0.24h45.36v9h-55.2
	L381.42,104.84L381.42,104.84z"/>
<path class="st1" d="M224.15,66.98c3.37,0.4,7.12,1.03,11.25,1.9v44.2c0,5.13-0.98,9.65-2.95,13.55c-1.97,3.9-4.83,6.92-8.6,9.05
	s-8.25,3.2-13.45,3.2c-5.67,0-11.43-1.17-17.3-3.5l1.3-5.6c6.13,1.93,11.4,2.9,15.8,2.9c5.6,0,10.05-1.72,13.35-5.15
	s4.98-8.22,5.05-14.35c-3.47,0.67-6.32,1.07-8.55,1.2s-5.15,0.2-8.75,0.2c-4.54,0-8.54-1.02-12-3.05c-3.47-2.03-6.17-4.85-8.1-8.45
	c-1.93-3.6-2.9-7.7-2.9-12.3c0-4.87,0.95-9.13,2.85-12.8c1.9-3.67,4.6-6.52,8.1-8.55c3.5-2.03,7.65-3.05,12.45-3.05
	C216.64,66.38,220.79,66.58,224.15,66.98z M199.65,77.38c-3.03,3.4-4.55,7.93-4.55,13.6c0,5.13,1.55,9.37,4.65,12.7
	c3.1,3.33,7.22,5,12.35,5c3.33,0,6.03-0.07,8.1-0.2s4.87-0.53,8.4-1.2v-33.7c-5.6-0.87-10.93-1.3-16-1.3
	C207,72.28,202.69,73.98,199.65,77.38z M273.74,69.03c3.33,1.77,5.93,4.32,7.8,7.65s2.8,7.2,2.8,11.6c0,2.07-0.1,3.83-0.3,5.3h-38.5
	c0.53,4.8,2.38,8.63,5.55,11.5s7.28,4.3,12.35,4.3c2.73,0,5.37-0.21,7.9-0.65c2.53-0.43,5.57-1.08,9.1-1.95l1.1,5.6
	c-3.67,1.07-6.83,1.87-9.5,2.4s-5.6,0.8-8.8,0.8c-5.13,0-9.58-1.05-13.35-3.15s-6.65-5.02-8.65-8.75s-3-8-3-12.8
	c0-4.87,1.02-9.15,3.05-12.85s4.87-6.57,8.5-8.6s7.78-3.05,12.45-3.05C266.57,66.38,270.4,67.26,273.74,69.03z M250.49,76.38
	c-3.04,2.93-4.75,6.87-5.15,11.8h32.8c-0.07-5-1.55-8.95-4.45-11.85c-2.9-2.9-6.68-4.35-11.35-4.35
	C257.47,71.98,253.52,73.44,250.49,76.38z M326.27,71.43c3.33,3.37,5,7.98,5,13.85v28.8h-6.8v-27.2c0-4.47-1.18-7.95-3.55-10.45
	s-5.62-3.75-9.75-3.75c-6.13,0-11.87,0.47-17.2,1.4v40h-6.8v-45.2c3.4-0.73,7.43-1.33,12.1-1.8s9.07-0.7,13.2-0.7
	C318.34,66.38,322.94,68.06,326.27,71.43z M369.61,69.03c3.33,1.77,5.93,4.32,7.8,7.65s2.8,7.2,2.8,11.6c0,2.07-0.1,3.83-0.3,5.3
	h-38.5c0.53,4.8,2.38,8.63,5.55,11.5c3.17,2.87,7.28,4.3,12.35,4.3c2.73,0,5.37-0.21,7.9-0.65c2.53-0.43,5.57-1.08,9.1-1.95l1.1,5.6
	c-3.67,1.07-6.83,1.87-9.5,2.4s-5.6,0.8-8.8,0.8c-5.13,0-9.58-1.05-13.35-3.15c-3.77-2.1-6.65-5.02-8.65-8.75s-3-8-3-12.8
	c0-4.87,1.02-9.15,3.05-12.85s4.87-6.57,8.5-8.6s7.78-3.05,12.45-3.05C362.44,66.38,366.27,67.26,369.61,69.03z M346.36,76.38
	c-3.04,2.93-4.75,6.87-5.15,11.8h32.8c-0.07-5-1.55-8.95-4.45-11.85c-2.9-2.9-6.68-4.35-11.35-4.35
	C353.34,71.98,349.39,73.44,346.36,76.38z"/>
<path id="Orange" class="st2" d="M86.02,140.38c-0.83-0.05-1.66-0.12-2.48-0.21l0.66-7.53c0.82,0.1,1.65,0.17,2.48,0.22
	L86.02,140.38z M39.07,82.2L31,80.99c-0.15,0.89-0.29,1.78-0.4,2.68l8.06,1.21C38.78,83.98,38.91,83.08,39.07,82.2z M38.84,98.54
	l-8.04,1.42c0.14,0.9,0.3,1.79,0.47,2.67l8.03-1.42C39.12,100.33,38.97,99.44,38.84,98.54z M45.09,116.42l-6.95,4.26
	c0.46,0.78,0.93,1.55,1.42,2.31l6.95-4.26C46.01,117.98,45.54,117.21,45.09,116.42z M63.66,135.03l-3.89,7.16
	c0.78,0.45,1.57,0.88,2.38,1.3l3.89-7.16C65.24,135.91,64.44,135.48,63.66,135.03z M97.25,18.41c1.2,0.13,2.38,0.29,3.56,0.48
	l1.62-11.81c-1.18-0.19-2.37-0.34-3.56-0.48L97.25,18.41z M93.37,18.08c1.2,0.07,2.4,0.17,3.58,0.29l0.99-11.88
	c-1.19-0.12-2.38-0.21-3.58-0.28L93.37,18.08z M39.43,37.45c0.88-0.81,1.78-1.61,2.69-2.38l-7.87-8.93
	c-0.92,0.77-1.82,1.56-2.7,2.37L39.43,37.45z M74.97,150l-2.24,10.69c1.13,0.26,2.26,0.5,3.41,0.71l2.24-10.69
	C77.23,150.5,76.09,150.27,74.97,150z M171.8,71.36l-11.65,2.52c0.28,1.16,0.53,2.33,0.76,3.51l11.65-2.52
	C172.34,73.69,172.08,72.52,171.8,71.36z M73.96,149.76c-1.13-0.29-2.24-0.62-3.34-0.98l-3.03,10.5c1.1,0.35,2.22,0.67,3.34,0.97
	L73.96,149.76z M89.09,40.25c0.02,0,0.03,0,0.05,0l-0.21-8.15c-0.91,0-1.81,0.03-2.71,0.07l0.21,8.15
	C87.31,40.28,88.2,40.25,89.09,40.25z M95.13,132.48l1.31,7.45c0.82-0.12,1.64-0.27,2.45-0.43l-1.31-7.44
	C96.77,132.22,95.95,132.36,95.13,132.48z M43.07,69.55L35.6,66.3c-0.38,0.82-0.74,1.64-1.09,2.48l7.48,3.25
	C42.33,71.2,42.69,70.37,43.07,69.55z M39.39,80.5c0.19-0.89,0.4-1.76,0.64-2.63l-7.93-1.91c-0.23,0.87-0.44,1.75-0.63,2.64
	L39.39,80.5z M129.82,81.44l7.3-1.96c-0.19-0.81-0.41-1.61-0.64-2.41l-7.3,1.96C129.42,79.83,129.63,80.63,129.82,81.44z
	 M63.74,47.06l-4.26-6.95c-0.78,0.46-1.55,0.93-2.31,1.42l4.25,6.95C62.19,47.98,62.96,47.51,63.74,47.06z M97.96,41.04l1.21-8.06
	c-0.89-0.15-1.78-0.29-2.68-0.4l-1.21,8.06C96.18,40.75,97.08,40.89,97.96,41.04z M128.82,77.93l7.1-2.58
	c-0.27-0.79-0.55-1.57-0.85-2.34l-7.1,2.58C128.28,76.36,128.56,77.14,128.82,77.93z M89.09,140.48c0.42,0,0.83-0.02,1.25-0.03
	v-7.56c-0.42,0.01-0.83,0.03-1.25,0.03s-0.83-0.02-1.24-0.03v7.56C88.26,140.46,88.67,140.48,89.09,140.48z M138.47,89.82h-7.56
	c0.01,0.42,0.03,0.83,0.03,1.25s-0.02,0.83-0.03,1.25h7.56c0.01-0.42,0.03-0.83,0.03-1.25C138.51,90.65,138.48,90.24,138.47,89.82z
	 M130.87,93.47c-0.05,0.83-0.12,1.66-0.22,2.48l7.53,0.66c0.09-0.82,0.16-1.65,0.21-2.48L130.87,93.47z M59.93,132.64l-4.5,6.8
	c0.74,0.52,1.49,1.02,2.26,1.5l4.5-6.79C61.42,133.66,60.67,133.16,59.93,132.64z M112.42,160.35c-1.13,0.38-2.28,0.74-3.43,1.06
	l3.52,11.38c1.15-0.33,2.3-0.69,3.43-1.06L112.42,160.35z M116.46,158.85c-1.11,0.45-2.23,0.87-3.37,1.27l4.19,11.16
	c1.13-0.4,2.25-0.83,3.36-1.27L116.46,158.85z M84.84,164.05c-1.2-0.07-2.4-0.17-3.59-0.29l-0.99,11.88
	c1.19,0.12,2.38,0.21,3.59,0.28L84.84,164.05z M124.09,155.25c-1.05,0.57-2.11,1.12-3.19,1.65l5.44,10.59
	c1.08-0.53,2.15-1.07,3.2-1.64L124.09,155.25z M80.95,163.72c-1.2-0.13-2.38-0.29-3.56-0.48l-1.62,11.81
	c1.18,0.19,2.37,0.34,3.56,0.47L80.95,163.72z M161.43,101.67c-0.17,1.19-0.38,2.37-0.61,3.54l11.74,2.02
	c0.23-1.17,0.44-2.35,0.62-3.54L161.43,101.67z M138.76,144.66c-0.88,0.81-1.78,1.61-2.7,2.38l7.88,8.93
	c0.92-0.77,1.82-1.56,2.7-2.37L138.76,144.66z M68.46,161.2c-1.15-0.34-2.29-0.71-3.42-1.1l-3.64,11.34
	c1.13,0.39,2.27,0.76,3.42,1.11L68.46,161.2z M159.23,111.7c-0.34,1.15-0.71,2.29-1.1,3.42l11.34,3.65
	c0.39-1.13,0.76-2.27,1.11-3.42L159.23,111.7z M150.5,130.69c-0.65,1.01-1.33,2-2.03,2.97l9.85,6.7c0.7-0.97,1.37-1.96,2.03-2.97
	L150.5,130.69z M152.65,147.48l-8.74-8.09c-0.79,0.9-1.61,1.78-2.44,2.64l8.74,8.09C151.03,149.25,151.85,148.37,152.65,147.48z
	 M25.54,34.64l8.74,8.1c0.79-0.9,1.61-1.78,2.44-2.64l-8.74-8.09C27.16,32.87,26.34,33.74,25.54,34.64z M17.41,76.6
	c0.24-1.18,0.5-2.35,0.8-3.5L6.59,70.46c-0.29,1.16-0.57,2.32-0.81,3.5L17.41,76.6z M4.97,103.49L16.79,102
	c-0.18-1.18-0.33-2.37-0.45-3.57L4.51,99.92C4.64,101.12,4.8,102.31,4.97,103.49z M16.75,80.45c0.17-1.19,0.38-2.37,0.61-3.54
	L5.61,74.89C5.39,76.06,5.17,77.24,5,78.43L16.75,80.45z M23.62,58.56c0.54-1.07,1.1-2.13,1.68-3.18l-10.54-5.56
	c-0.58,1.05-1.14,2.11-1.68,3.18L23.62,58.56z M27.69,51.42c0.65-1.01,1.33-2,2.03-2.97l-9.84-6.7c-0.7,0.97-1.37,1.96-2.03,2.97
	L27.69,51.42z M51.01,153.46c-1.02-0.63-2.03-1.28-3.02-1.95l-6.46,10.02c0.99,0.67,2,1.31,3.02,1.94L51.01,153.46z M56.6,156.54
	c-1.07-0.54-2.13-1.1-3.18-1.68l-5.56,10.54c1.05,0.58,2.11,1.14,3.18,1.68L56.6,156.54z M24.9,126.06
	c-0.57-1.05-1.12-2.11-1.65-3.19l-10.59,5.44c0.53,1.08,1.07,2.15,1.64,3.2L24.9,126.06z M47.12,150.89
	c-0.98-0.69-1.94-1.4-2.89-2.14l-7.08,9.58c0.95,0.73,1.91,1.44,2.89,2.14L47.12,150.89z M36.18,141.46
	c-0.83-0.87-1.63-1.76-2.42-2.66l-8.82,8c0.79,0.9,1.59,1.79,2.41,2.66L36.18,141.46z M36.12,157.52l7.62-9.15
	c-0.94-0.75-1.86-1.51-2.76-2.3l-7.62,9.15C34.26,156,35.18,156.77,36.12,157.52z"/>
<path id="Red" class="st3" d="M40.22,83.71c0.12-0.82,0.27-1.64,0.43-2.45l7.44,1.31c-0.17,0.81-0.31,1.63-0.43,2.45L40.22,83.71z
	 M104.57,52.18l2.58-7.1c-0.77-0.3-1.55-0.59-2.34-0.85l-2.58,7.1C103.02,51.59,103.8,51.88,104.57,52.18z M48.36,81.44
	c0.19-0.81,0.4-1.61,0.64-2.41l-7.3-1.96c-0.23,0.79-0.45,1.6-0.64,2.41L48.36,81.44z M105.64,52.62c0.76,0.33,1.51,0.69,2.25,1.06
	l3.19-6.85c-0.74-0.37-1.49-0.72-2.25-1.06L105.64,52.62z M108.93,54.21c0.73,0.4,1.45,0.82,2.15,1.25l3.78-6.55
	c-0.71-0.43-1.42-0.85-2.15-1.25L108.93,54.21z M58.26,119.34l-5.41,5.27c0.56,0.61,1.14,1.2,1.74,1.78l5.41-5.27
	C59.4,120.54,58.82,119.95,58.26,119.34z M114.54,57.87l4.42-6.13c-0.66-0.5-1.33-0.99-2.02-1.46l-4.41,6.13
	C113.22,56.87,113.88,57.36,114.54,57.87z M63.64,124.26l-4.42,6.13c0.66,0.5,1.33,0.99,2.02,1.46l4.41-6.13
	C64.96,125.26,64.3,124.77,63.64,124.26z M70.29,128.45l-3.19,6.85c0.74,0.37,1.49,0.72,2.25,1.06l3.19-6.85
	C71.77,129.17,71.03,128.82,70.29,128.45z M47.31,93.47l-7.53,0.66c0.05,0.83,0.12,1.66,0.21,2.48l7.53-0.66
	C47.43,95.13,47.35,94.31,47.31,93.47z M107.89,128.44c-0.74,0.37-1.49,0.73-2.25,1.06l3.19,6.85c0.76-0.33,1.51-0.69,2.25-1.06
	L107.89,128.44z M48.36,100.69l-7.3,1.96c0.2,0.81,0.41,1.61,0.64,2.41l7.3-1.96C48.76,102.3,48.55,101.5,48.36,100.69z
	 M47.23,91.07c0-0.42,0.02-0.83,0.03-1.25H39.7c-0.01,0.42-0.03,0.83-0.03,1.25s0.02,0.83,0.03,1.24h7.56
	C47.25,91.89,47.23,91.48,47.23,91.07z M106.43,138.82l2.98,7.59c0.85-0.31,1.69-0.65,2.52-1l-2.99-7.59
	C108.12,138.18,107.28,138.52,106.43,138.82z M121.92,65.14l5.79-4.86c-0.52-0.65-1.05-1.29-1.6-1.91l-5.78,4.86
	C120.87,63.85,121.4,64.49,121.92,65.14z M133.05,116.5l7.16,3.89c0.45-0.78,0.88-1.57,1.3-2.38l-7.16-3.89
	C133.94,114.92,133.5,115.72,133.05,116.5z M97.87,141.1l1.62,7.99c0.89-0.16,1.78-0.34,2.66-0.54l-1.62-7.99
	C99.65,140.76,98.77,140.94,97.87,141.1z M136.82,108.49l7.73,2.59c0.31-0.85,0.6-1.7,0.87-2.57l-7.74-2.59
	C137.42,106.78,137.13,107.64,136.82,108.49z M173.21,78.64l-11.82,1.49c0.18,1.18,0.33,2.37,0.45,3.57l11.83-1.49
	C173.54,81.01,173.39,79.82,173.21,78.64z M63.17,58.24l-4.86-5.79c-0.65,0.52-1.29,1.05-1.91,1.6l4.85,5.79
	C61.88,59.28,62.52,58.75,63.17,58.24z M72.54,52.62l-3.19-6.85c-0.76,0.33-1.51,0.69-2.25,1.06l3.19,6.85
	C71.02,53.31,71.77,52.95,72.54,52.62z M86.68,49.28l-0.66-7.53c-0.83,0.05-1.66,0.12-2.48,0.21l0.66,7.53
	C85.02,49.4,85.85,49.33,86.68,49.28z M57.86,63.23l-5.79-4.86c-0.55,0.62-1.08,1.26-1.6,1.91l5.79,4.86
	C56.78,64.49,57.31,63.85,57.86,63.23z M98.71,131.79l1.96,7.3c0.81-0.2,1.61-0.41,2.41-0.64l-1.96-7.3
	C100.33,131.39,99.53,131.6,98.71,131.79z M60.41,60.62l-5.34-5.34c-0.6,0.57-1.19,1.16-1.76,1.76l5.34,5.34
	C59.22,61.78,59.8,61.19,60.41,60.62z M159.04,69.75c0.35,1.14,0.67,2.3,0.96,3.46l11.49-3.19c-0.3-1.17-0.63-2.32-0.98-3.46
	L159.04,69.75z M65.78,21.77c1.13-0.38,2.28-0.74,3.43-1.06L65.69,9.32c-1.15,0.33-2.3,0.68-3.43,1.06L65.78,21.77z M61.74,23.27
	c1.11-0.45,2.23-0.87,3.36-1.27l-4.19-11.16c-1.13,0.4-2.25,0.83-3.36,1.27L61.74,23.27z M43.51,33.95
	c0.94-0.75,1.89-1.47,2.86-2.18l-7.2-9.49c-0.97,0.71-1.92,1.43-2.86,2.18L43.51,33.95z M20.85,40.38l9.42,7.31
	c0.71-0.96,1.45-1.91,2.21-2.84l-9.41-7.3C22.31,38.48,21.57,39.42,20.85,40.38z M131.07,31.25c0.98,0.69,1.94,1.4,2.89,2.14
	l7.08-9.58c-0.95-0.73-1.91-1.44-2.89-2.14L131.07,31.25z M142.08,24.62l-7.62,9.16c0.94,0.75,1.86,1.51,2.76,2.3l7.62-9.15
	C143.93,26.14,143.01,25.37,142.08,24.62z M6.38,110.77l11.65-2.52c-0.28-1.16-0.53-2.33-0.76-3.51l-11.65,2.52
	C5.85,108.44,6.11,109.61,6.38,110.77z M165.11,129.12l-10.54-5.56c-0.54,1.07-1.1,2.13-1.68,3.18l10.54,5.56
	C164.01,131.25,164.57,130.19,165.11,129.12z M16.01,89.28c0.03-1.21,0.09-2.4,0.17-3.59L4.28,85.1c-0.08,1.19-0.14,2.39-0.17,3.59
	L16.01,89.28z M162.17,92.85c-0.03,1.21-0.09,2.4-0.17,3.59l11.9,0.58c0.08-1.19,0.14-2.39,0.17-3.59L162.17,92.85z M20.41,116.18
	c-0.41-1.12-0.8-2.26-1.15-3.41l-11.28,3.82c0.36,1.15,0.75,2.28,1.15,3.4L20.41,116.18z M133.93,50.33l7.86-7.57
	c-0.78-0.86-1.59-1.69-2.42-2.51l-7.87,7.57C132.34,48.64,133.15,49.47,133.93,50.33z M139.51,97.25c-0.11,0.9-0.24,1.79-0.4,2.68
	l8.06,1.21c0.15-0.89,0.29-1.78,0.4-2.68L139.51,97.25z M128.82,104.2c-0.26,0.79-0.55,1.57-0.85,2.34l7.1,2.58
	c0.3-0.77,0.59-1.55,0.85-2.34L128.82,104.2z M137.31,54.4l8.49-6.85c-0.71-0.92-1.44-1.82-2.19-2.71l-8.5,6.86
	C135.87,52.57,136.6,53.47,137.31,54.4z M114.53,47.11l3.89-7.16c-0.78-0.45-1.58-0.88-2.38-1.3l-3.89,7.16
	C112.95,46.22,113.75,46.65,114.53,47.11z M122.64,66.06c0.5,0.67,0.97,1.35,1.42,2.04l6.19-4.33c-0.46-0.69-0.94-1.37-1.43-2.04
	L122.64,66.06z M122.64,116.07l6.19,4.33c0.49-0.67,0.97-1.35,1.43-2.04l-6.19-4.34C123.6,114.72,123.13,115.41,122.64,116.07z
	 M136.48,105.05c0.23-0.79,0.45-1.6,0.64-2.41l-7.3-1.96c-0.19,0.81-0.4,1.61-0.64,2.41L136.48,105.05z M130.87,88.66L138.4,88
	c-0.05-0.83-0.12-1.66-0.21-2.48l-7.53,0.66C130.75,87,130.83,87.82,130.87,88.66z M135.15,69.64l7.3-3.64
	c-0.39-0.82-0.79-1.63-1.21-2.42l-7.29,3.63C134.37,68.01,134.77,68.82,135.15,69.64z M140.32,58.74l9.06-6.09
	c-0.63-0.98-1.27-1.94-1.95-2.89l-9.06,6.09C139.05,56.8,139.7,57.76,140.32,58.74z M139.86,92.83c-0.03,0.91-0.08,1.81-0.16,2.71
	l8.13,0.5c0.08-0.9,0.13-1.8,0.17-2.71L139.86,92.83z M115.01,123.89l4.86,5.79c0.65-0.52,1.29-1.05,1.91-1.6l-4.86-5.78
	C116.3,122.85,115.66,123.38,115.01,123.89z M110.61,45.05l3.25-7.47c-0.82-0.38-1.65-0.74-2.48-1.09l-3.25,7.48
	C108.96,44.3,109.79,44.66,110.61,45.05z"/>
<path id="Blue" class="st4" d="M127.53,107.62l6.85,3.19c-0.33,0.76-0.69,1.51-1.06,2.25l-6.85-3.19
	C126.84,109.13,127.2,108.38,127.53,107.62z M130.2,46.58l7.18-8.23c-0.86-0.78-1.73-1.55-2.62-2.29l-7.17,8.22
	C128.48,45.03,129.35,45.8,130.2,46.58z M61.35,37.2l-5.28-9.56c-1.03,0.54-2.04,1.1-3.04,1.69l5.27,9.56
	C59.3,38.3,60.32,37.74,61.35,37.2z M71.11,33.18l-3.53-10.33c-1.11,0.35-2.21,0.73-3.29,1.13l3.54,10.34
	C68.91,33.91,70,33.52,71.11,33.18z M52.42,42.85l-6.85-8.49c-0.92,0.71-1.82,1.44-2.71,2.19l6.86,8.5
	C50.6,44.29,51.5,43.55,52.42,42.85z M124.69,113.05l6.55,3.78c0.43-0.71,0.85-1.42,1.25-2.15l-6.55-3.78
	C125.54,111.63,125.12,112.35,124.69,113.05z M93.98,49.5l0.66-7.53c-0.82-0.09-1.65-0.16-2.48-0.22l-0.66,7.53
	C92.33,49.33,93.16,49.4,93.98,49.5z M69.25,54.22l-3.78-6.55c-0.73,0.4-1.45,0.82-2.15,1.25l3.78,6.55
	C67.8,55.03,68.52,54.61,69.25,54.22z M119.92,62.79l5.41-5.27c-0.56-0.61-1.14-1.2-1.74-1.78l-5.41,5.27
	C118.78,61.59,119.36,62.18,119.92,62.79z M46.3,48.19c0.82-0.82,1.67-1.61,2.54-2.38l-7.49-7.95c-0.86,0.78-1.71,1.57-2.53,2.39
	L46.3,48.19z M97.58,50.07l1.31-7.44c-0.81-0.16-1.63-0.31-2.45-0.43l-1.31,7.45C95.95,49.77,96.77,49.91,97.58,50.07z M79.47,50.33
	l-1.96-7.3c-0.81,0.19-1.61,0.41-2.4,0.64l1.95,7.3C77.85,50.74,78.65,50.53,79.47,50.33z M127.53,74.51l6.85-3.19
	c-0.33-0.76-0.69-1.51-1.06-2.25l-6.85,3.19C126.84,73,127.2,73.75,127.53,74.51z M135.05,130.51l8.49,6.87
	c0.75-0.88,1.48-1.78,2.19-2.7l-8.48-6.87C136.54,128.73,135.8,129.63,135.05,130.51z M50.65,107.62l-6.85,3.19
	c0.33,0.76,0.69,1.51,1.06,2.25l6.85-3.2C51.34,109.13,50.98,108.38,50.65,107.62z M33.2,67.63L23.01,63.7
	c-0.44,1.07-0.86,2.15-1.26,3.25l10.19,3.93C32.34,69.78,32.75,68.7,33.2,67.63z M46,48.49l-7.98-7.44
	c-0.81,0.83-1.6,1.68-2.37,2.54l7.98,7.45C44.4,50.17,45.18,49.32,46,48.49z M43.13,51.62l-8.49-6.87c-0.75,0.88-1.48,1.78-2.19,2.7
	l8.48,6.87C41.64,53.4,42.38,52.5,43.13,51.62z M142.71,119.27l9.8,4.8c0.54-1.03,1.05-2.07,1.54-3.12l-9.81-4.8
	C143.76,117.2,143.25,118.25,142.71,119.27z M144.98,114.5l10.19,3.93c0.44-1.07,0.86-2.15,1.26-3.25l-10.19-3.93
	C145.84,112.35,145.43,113.43,144.98,114.5z M149.69,90.61l10.91-0.4c-0.01-1.17-0.05-2.33-0.12-3.48l-10.92,0.4
	C149.63,88.28,149.68,89.44,149.69,90.61z M116.83,144.92l5.28,9.56c1.03-0.54,2.04-1.1,3.04-1.69l-5.27-9.56
	C118.88,143.83,117.86,144.39,116.83,144.92z M107.07,148.95l3.54,10.33c1.11-0.35,2.21-0.73,3.29-1.13l-3.54-10.34
	C109.27,148.22,108.18,148.61,107.07,148.95z M91.47,151.61l0.74,10.9c1.17-0.05,2.32-0.13,3.47-0.24l-0.74-10.89
	C93.8,151.5,92.64,151.57,91.47,151.61z M101.95,150.29l2.62,10.6c1.14-0.25,2.26-0.53,3.38-0.84l-2.62-10.6
	C104.21,149.76,103.09,150.04,101.95,150.29z M149.09,82.59l10.77-1.84c-0.17-1.15-0.36-2.3-0.59-3.43l-10.76,1.84
	C148.74,80.29,148.93,81.43,149.09,82.59z M131.88,133.94c-0.82,0.82-1.67,1.61-2.54,2.38l7.49,7.95c0.86-0.78,1.71-1.57,2.53-2.39
	L131.88,133.94z M35.47,62.86l-9.8-4.8c-0.54,1.03-1.05,2.07-1.54,3.12l9.81,4.81C34.42,64.92,34.93,63.88,35.47,62.86z
	 M33.01,114.01l-9.99,4.43c0.45,1.07,0.92,2.13,1.41,3.18l9.98-4.42C33.91,116.15,33.45,115.09,33.01,114.01z M44.25,131.8
	l-7.86,7.57c0.78,0.86,1.59,1.69,2.42,2.51l7.87-7.57C45.84,133.49,45.03,132.66,44.25,131.8z M40.87,127.73l-8.49,6.85
	c0.71,0.92,1.44,1.82,2.19,2.71l8.5-6.86C42.31,129.56,41.58,128.66,40.87,127.73z M34.65,117.67l-9.67,5.07
	c0.52,1.04,1.06,2.07,1.62,3.08l9.67-5.08C35.71,119.74,35.16,118.72,34.65,117.67z M28.49,91.52l-10.91,0.4
	c0.01,1.17,0.05,2.33,0.12,3.48L28.62,95C28.55,93.85,28.5,92.69,28.49,91.52z M28.48,91.07c0-1.13,0.04-2.25,0.1-3.37l-10.93-0.3
	c-0.06,1.15-0.08,2.31-0.09,3.48l10.92,0.29C28.48,91.14,28.48,91.1,28.48,91.07z M29.31,81.11c0.19-1.15,0.42-2.29,0.67-3.42
	l-10.72-2.1c-0.25,1.13-0.47,2.27-0.67,3.42L29.31,81.11z M150.83,32.68l-8.83,8c0.83,0.87,1.63,1.76,2.42,2.66l8.82-8
	C152.46,34.44,151.66,33.55,150.83,32.68z M86.07,6.1l0.17,11.91c0.95-0.04,1.89-0.07,2.85-0.07c0.25,0,0.5,0.02,0.75,0.02
	L89.66,6.04c-0.19,0-0.38-0.01-0.57-0.01C88.08,6.02,87.07,6.07,86.07,6.1z M149.7,90.95c0,0.04,0,0.07,0,0.11
	c0,1.13-0.04,2.25-0.1,3.37l10.92,0.29c0.06-1.15,0.09-2.31,0.09-3.48L149.7,90.95z M148.87,101.02c-0.19,1.15-0.42,2.29-0.67,3.42
	l10.72,2.1c0.25-1.13,0.47-2.27,0.67-3.42L148.87,101.02z M52.01,138.96l-6.43,8.82c0.92,0.71,1.86,1.39,2.81,2.05l6.43-8.82
	C53.86,140.36,52.93,139.67,52.01,138.96z M64.15,146.28l-4.21,10.08c1.06,0.47,2.13,0.92,3.21,1.35l4.21-10.08
	C66.27,147.21,65.2,146.76,64.15,146.28z M54.12,114.03l-6.19,4.34c0.46,0.69,0.94,1.37,1.43,2.04l6.19-4.33
	C55.05,115.41,54.58,114.72,54.12,114.03z M114.03,35.85l4.21-10.08c-1.06-0.47-2.13-0.92-3.21-1.34l-4.21,10.07
	C111.91,34.92,112.98,35.37,114.03,35.85z M77.06,131.15l-1.95,7.3c0.79,0.23,1.6,0.45,2.4,0.64l1.96-7.3
	C78.65,131.6,77.85,131.39,77.06,131.15z M107.57,33.34l3.03-10.5c-1.1-0.35-2.22-0.67-3.34-0.96l-3.03,10.49
	C105.35,32.66,106.46,32.99,107.57,33.34z M73.61,129.95l-2.58,7.1c0.77,0.3,1.55,0.59,2.34,0.85l2.58-7.1
	C75.16,130.54,74.38,130.25,73.61,129.95z M52.24,110.9l-6.55,3.78c0.4,0.73,0.82,1.45,1.25,2.15l6.55-3.78
	C53.06,112.35,52.64,111.63,52.24,110.9z M103.21,32.13l2.24-10.69c-1.13-0.27-2.26-0.5-3.41-0.71L99.8,31.42
	C100.95,31.63,102.09,31.86,103.21,32.13z M143.53,64.46l9.66-5.07c-0.52-1.04-1.06-2.07-1.62-3.08l-9.67,5.08
	C142.47,62.39,143.02,63.41,143.53,64.46z M72.85,32.68c1.11-0.31,2.24-0.59,3.38-0.84l-2.62-10.6c-1.14,0.25-2.26,0.53-3.38,0.84
	L72.85,32.68z M89.09,30.45c0.97,0,1.94,0.03,2.91,0.07l0.21-10.91c-1.03-0.04-2.07-0.08-3.12-0.08c-0.12,0-0.24,0.01-0.36,0.01
	l-0.21,10.92C88.71,30.47,88.9,30.45,89.09,30.45z M145.17,68.12l9.99-4.43c-0.45-1.07-0.92-2.13-1.41-3.18l-9.98,4.42
	C144.27,65.98,144.73,67.04,145.17,68.12z M147.51,74.97l10.44-3.2c-0.31-1.12-0.65-2.23-1.02-3.33l-10.44,3.2
	C146.86,72.74,147.2,73.85,147.51,74.97z M96.29,30.9l0.99-10.88c-1.15-0.13-2.3-0.23-3.47-0.31l-0.99,10.87
	C93.99,30.65,95.15,30.76,96.29,30.9z M148.42,78.68l10.62-2.54c-0.24-1.14-0.51-2.27-0.81-3.39l-10.63,2.54
	C147.91,76.41,148.18,77.54,148.42,78.68z"/>
<path id="Green" class="st5" d="M124.73,44.13c0.72,0.55,1.43,1.11,2.12,1.69l-5.08,6.38c-0.69-0.58-1.39-1.15-2.12-1.69
	L124.73,44.13z M52.24,71.23c0.4-0.73,0.82-1.45,1.25-2.15l-6.55-3.78c-0.43,0.71-0.85,1.42-1.25,2.15L52.24,71.23z M67.67,45
	l-3.64-7.3c-0.82,0.39-1.62,0.79-2.42,1.21l3.63,7.29C66.04,45.79,66.85,45.39,67.67,45z M91.5,132.85l0.66,7.53
	c0.83-0.05,1.66-0.12,2.48-0.21l-0.66-7.53C93.15,132.72,92.33,132.8,91.5,132.85z M84.71,40.45l-0.92-8.1
	c-0.9,0.08-1.8,0.18-2.69,0.31l0.92,8.1C82.91,40.63,83.81,40.53,84.71,40.45z M75.99,41.97l-2.31-7.82
	c-0.87,0.24-1.74,0.49-2.6,0.77l2.31,7.82C74.25,42.47,75.11,42.21,75.99,41.97z M80.32,41.03l-1.62-7.99
	c-0.89,0.16-1.78,0.34-2.66,0.54l1.62,7.99C78.54,41.36,79.42,41.18,80.32,41.03z M93.57,40.46l0.5-8.14
	c-0.9-0.08-1.8-0.13-2.7-0.17l-0.5,8.14C91.77,40.33,92.67,40.38,93.57,40.46z M130.72,61.98l6.55-4.84
	c-0.52-0.74-1.06-1.46-1.61-2.18l-6.55,4.84C129.66,60.51,130.2,61.24,130.72,61.98z M133.1,65.71l6.95-4.26
	c-0.46-0.78-0.93-1.55-1.42-2.31l-6.95,4.26C132.17,64.16,132.65,64.93,133.1,65.71z M128.02,58.46l6.1-5.4
	c-0.58-0.69-1.18-1.37-1.79-2.03l-6.11,5.4C126.84,57.1,127.44,57.77,128.02,58.46z M139.35,83.59l8.03-1.42
	c-0.14-0.9-0.3-1.79-0.47-2.67l-8.03,1.42C139.06,81.8,139.21,82.69,139.35,83.59z M138.18,77.96l7.82-2.31
	c-0.24-0.88-0.49-1.74-0.77-2.6l-7.82,2.31C137.69,76.22,137.95,77.08,138.18,77.96z M117.77,121.51l5.34,5.34
	c0.6-0.57,1.19-1.16,1.76-1.76l-5.34-5.34C118.96,120.35,118.38,120.94,117.77,121.51z M51.71,72.26l-6.85-3.2
	c-0.37,0.74-0.72,1.49-1.06,2.25l6.85,3.19C50.98,73.75,51.34,73,51.71,72.26z M139.7,86.68l8.1-0.92c-0.08-0.9-0.19-1.8-0.31-2.69
	l-8.1,0.92C139.52,84.88,139.62,85.78,139.7,86.68z M121.7,129.99l5.4,6.1c0.69-0.58,1.37-1.18,2.03-1.8l-5.4-6.11
	C123.07,128.81,122.39,129.41,121.7,129.99z M75.9,140.13l-1.9,7.93c0.87,0.23,1.75,0.44,2.63,0.63l1.91-7.93
	C77.65,140.58,76.77,140.36,75.9,140.13z M110.52,137.12l3.64,7.3c0.82-0.39,1.63-0.79,2.42-1.21l-3.63-7.29
	C112.15,136.34,111.34,136.74,110.52,137.12z M114.45,135.07l4.26,6.95c0.78-0.46,1.55-0.93,2.31-1.42l-4.26-6.95
	C116,134.14,115.23,134.62,114.45,135.07z M60,49.44l-4.84-6.55c-0.74,0.52-1.46,1.06-2.18,1.61l4.85,6.55
	C58.54,50.5,59.26,49.96,60,49.44z M124.97,127.01l5.91,5.61c0.64-0.64,1.26-1.29,1.87-1.96l-5.91-5.62
	C126.23,125.71,125.61,126.37,124.97,127.01z M138.15,104.26l7.93,1.91c0.23-0.87,0.44-1.75,0.63-2.64l-7.92-1.91
	C138.6,102.51,138.39,103.39,138.15,104.26z M47.98,135.54l-7.18,8.23c0.85,0.78,1.73,1.55,2.62,2.29l7.17-8.22
	C49.7,137.1,48.83,136.33,47.98,135.54z M53.21,55.12l-5.91-5.61c-0.64,0.64-1.26,1.29-1.87,1.96l5.91,5.62
	C51.95,56.41,52.57,55.76,53.21,55.12z M56.49,52.13l-5.4-6.1c-0.69,0.58-1.37,1.18-2.03,1.79l5.4,6.11
	C55.12,53.31,55.79,52.71,56.49,52.13z M50.22,58.39l-6.38-5.08c-0.58,0.69-1.14,1.4-1.69,2.12l6.37,5.08
	C49.07,59.78,49.64,59.08,50.22,58.39z M41.36,73.64l-7.73-2.59c-0.31,0.85-0.6,1.7-0.87,2.57l7.74,2.59
	C40.77,75.35,41.05,74.49,41.36,73.64z M38.49,86.59l-8.14-0.5c-0.08,0.9-0.13,1.8-0.17,2.7l8.14,0.5
	C38.36,88.39,38.41,87.49,38.49,86.59z M41.33,108.4l-7.59,2.99c0.31,0.85,0.65,1.69,1,2.52l7.59-2.99
	C41.97,110.1,41.64,109.26,41.33,108.4z M45.13,65.63l-7.16-3.89c-0.45,0.78-0.88,1.58-1.3,2.38l7.16,3.89
	C44.25,67.2,44.68,66.41,45.13,65.63z M146.2,45.48c0.75,0.94,1.47,1.89,2.18,2.86l9.49-7.2c-0.71-0.97-1.43-1.92-2.18-2.86
	L146.2,45.48z M89.09,151.67c-0.97,0-1.94-0.03-2.91-0.07l-0.21,10.91c1.03,0.04,2.07,0.08,3.11,0.08c0.12,0,0.24-0.01,0.37-0.01
	l0.21-10.92C89.47,151.66,89.28,151.67,89.09,151.67z M169.06,62.14l-11.29,3.82c0.41,1.12,0.8,2.26,1.15,3.41l11.29-3.82
	C169.85,64.4,169.46,63.26,169.06,62.14z M78.17,18.76c1.18-0.18,2.37-0.33,3.57-0.45l-1.5-11.82c-1.2,0.12-2.38,0.28-3.56,0.46
	L78.17,18.76z M127.18,28.67c1.02,0.63,2.03,1.28,3.02,1.95l6.46-10.02c-0.99-0.67-2-1.32-3.02-1.95L127.18,28.67z M81.89,151.23
	l-0.99,10.88c1.15,0.13,2.3,0.23,3.47,0.31l0.99-10.87C84.19,151.48,83.03,151.37,81.89,151.23z M30.67,107.16l-10.44,3.2
	c0.31,1.12,0.65,2.23,1.02,3.33l10.44-3.2C31.32,109.39,30.98,108.28,30.67,107.16z M56.32,142.01l-5.64,9.35
	c0.98,0.62,1.97,1.23,2.98,1.8l5.64-9.35C58.29,143.24,57.3,142.64,56.32,142.01z M173.97,86.02l-11.91,0.46
	c0.07,1.19,0.12,2.39,0.13,3.59l11.91-0.45C174.07,88.41,174.04,87.21,173.97,86.02z M71.91,20c1.16-0.28,2.33-0.53,3.52-0.76
	L72.91,7.59c-1.18,0.23-2.35,0.49-3.51,0.76L71.91,20z M157.34,141.74l-9.42-7.31c-0.71,0.96-1.45,1.91-2.2,2.84l9.41,7.3
	C155.88,143.64,156.62,142.7,157.34,141.74z M29.66,102.98c-0.23-1.13-0.41-2.28-0.58-3.44l-10.77,1.84
	c0.17,1.15,0.36,2.3,0.59,3.43L29.66,102.98z M134.69,148.17c-0.94,0.75-1.89,1.47-2.86,2.18l7.2,9.49
	c0.97-0.71,1.92-1.43,2.86-2.18L134.69,148.17z M106.29,162.12c-1.16,0.28-2.33,0.53-3.51,0.76l2.52,11.65
	c1.18-0.23,2.35-0.49,3.51-0.76L106.29,162.12z M7.67,115.57l11.48-3.19c-0.35-1.14-0.67-2.3-0.96-3.46L6.7,112.11
	C6.99,113.28,7.32,114.43,7.67,115.57z M75.93,162.98c-1.18-0.22-2.36-0.46-3.52-0.73l-2.43,11.67c1.16,0.27,2.34,0.51,3.52,0.74
	L75.93,162.98z M117.3,37.44l4.8-9.8c-1.03-0.54-2.07-1.05-3.12-1.54l-4.81,9.81C115.23,36.39,116.27,36.9,117.3,37.44z
	 M91.97,149.96l-0.21-8.15c-0.88,0.05-1.77,0.07-2.67,0.07c-0.01,0-0.02,0-0.04,0l0.21,8.15C90.17,150.02,91.07,150,91.97,149.96z
	 M139.83,88.4c0.05,0.88,0.07,1.77,0.07,2.66c0,0.01,0,0.03,0,0.04l8.15-0.21c0-0.91-0.03-1.81-0.07-2.71L139.83,88.4z
	 M43.04,112.49l-7.3,3.64c0.39,0.82,0.79,1.63,1.21,2.42l7.3-3.63C43.82,114.12,43.42,113.31,43.04,112.49z M53.15,126.95
	l-5.61,5.91c0.64,0.64,1.29,1.26,1.96,1.87l5.62-5.91C54.45,128.21,53.79,127.59,53.15,126.95z M50.16,123.67l-6.1,5.4
	c0.58,0.69,1.18,1.37,1.79,2.03l6.11-5.4C51.35,125.04,50.74,124.37,50.16,123.67z M103.95,42.47c0.87,0.27,1.73,0.55,2.57,0.86
	l2.59-7.73c-0.85-0.31-1.7-0.6-2.57-0.87L103.95,42.47z M61.26,122.29l-4.85,5.79c0.62,0.55,1.26,1.08,1.91,1.6l4.86-5.79
	C62.52,123.38,61.88,122.85,61.26,122.29z M118.26,49.5l4.5-6.79c-0.74-0.52-1.49-1.02-2.26-1.5L116,48
	C116.77,48.48,117.52,48.98,118.26,49.5z M80.23,141.09l-1.21,8.06c0.89,0.15,1.78,0.29,2.68,0.4l1.21-8.06
	C82.01,141.38,81.12,141.24,80.23,141.09z M38.28,91.07c0-0.01,0-0.03,0-0.04l-8.15,0.21c0,0.91,0.03,1.81,0.07,2.71l8.15-0.21
	C38.3,92.85,38.28,91.96,38.28,91.07z M126.17,43.17l6.43-8.82c-0.92-0.71-1.86-1.39-2.81-2.06l-6.43,8.82
	C124.32,41.77,125.25,42.46,126.17,43.17z M74.24,139.66c-0.87-0.27-1.72-0.55-2.57-0.86l-2.59,7.73c0.85,0.31,1.7,0.6,2.57,0.87
	L74.24,139.66z M56.42,129.94l-5.08,6.38c0.69,0.58,1.4,1.14,2.12,1.69l5.07-6.37C57.81,131.09,57.11,130.52,56.42,129.94z
	 M19.95,109.38l10.63-2.54c-0.3-1.12-0.58-2.24-0.82-3.38L19.14,106C19.38,107.13,19.65,108.26,19.95,109.38z"/>
<g>
	<path class="st1" d="M475.98,70.66c0,0.39-0.06,0.7-0.17,0.92L457,112.46c-0.56,1.17-1.45,1.76-2.68,1.76
		c-0.5,0-0.96-0.15-1.38-0.46s-0.74-0.74-0.96-1.3l-19.06-40.8c-0.11-0.22-0.17-0.53-0.17-0.92c0-1,0.47-1.73,1.42-2.17
		c0.33-0.17,0.67-0.25,1-0.25c0.95,0,1.64,0.47,2.09,1.42l17.14,37.12l16.89-37.2c0.45-0.95,1.17-1.42,2.17-1.42
		c0.39,0,0.75,0.08,1.09,0.25C475.51,68.93,475.98,69.66,475.98,70.66z"/>
	<path class="st1" d="M507.08,70.95c3.57,2.04,6.37,4.84,8.4,8.4c2.03,3.57,3.05,7.55,3.05,11.96v20.32c0,0.73-0.22,1.32-0.67,1.8
		c-0.45,0.47-1.06,0.71-1.84,0.71c-0.73,0-1.32-0.24-1.8-0.71c-0.47-0.47-0.71-1.07-0.71-1.8v-6.52c-1.84,2.96-4.36,5.28-7.57,6.98
		c-3.21,1.7-6.79,2.55-10.74,2.55c-4.4,0-8.39-1.02-11.96-3.05c-3.57-2.03-6.37-4.83-8.4-8.4s-3.05-7.52-3.05-11.87
		c0-4.4,1.02-8.39,3.05-11.96s4.83-6.37,8.4-8.4s7.55-3.05,11.96-3.05C499.56,67.9,503.51,68.92,507.08,70.95z M504.57,107.53
		c2.79-1.62,4.97-3.85,6.56-6.69c1.59-2.84,2.38-6.02,2.38-9.53s-0.79-6.69-2.38-9.53c-1.59-2.84-3.78-5.09-6.56-6.73
		c-2.79-1.64-5.91-2.47-9.36-2.47c-3.46,0-6.58,0.82-9.36,2.47c-2.79,1.64-4.99,3.89-6.6,6.73c-1.62,2.84-2.42,6.02-2.42,9.53
		s0.81,6.69,2.42,9.53c1.62,2.84,3.82,5.07,6.6,6.69c2.79,1.62,5.91,2.42,9.36,2.42C498.67,109.96,501.79,109.15,504.57,107.53z"/>
	<path class="st1" d="M548.46,70.66c0,0.28-0.03,0.5-0.08,0.67c-0.17,0.61-0.43,1.04-0.79,1.3c-0.36,0.25-0.85,0.38-1.46,0.38
		c-0.5,0-1.16-0.05-1.96-0.17c-0.81-0.11-1.49-0.17-2.05-0.17c-2.79,0-5.27,0.59-7.44,1.76s-3.87,2.79-5.1,4.85
		s-1.84,4.38-1.84,6.94v25.42c0,0.73-0.22,1.32-0.67,1.8c-0.45,0.47-1.06,0.71-1.84,0.71c-0.73,0-1.32-0.24-1.8-0.71
		c-0.47-0.47-0.71-1.07-0.71-1.8V70.91c0-0.78,0.24-1.39,0.71-1.84c0.47-0.45,1.07-0.67,1.8-0.67c0.78,0,1.39,0.22,1.84,0.67
		s0.67,1.06,0.67,1.84v5.18c1.62-2.56,3.68-4.57,6.19-6.02s5.24-2.17,8.19-2.17C546.35,67.9,548.46,68.82,548.46,70.66z"/>
</g>
</svg>
