<?xml version="1.0" encoding="utf-8"?>
<!-- Generator: Adobe Illustrator 24.0.1, SVG Export Plug-In . SVG Version: 6.00 Build 0)  -->
<svg version="1.1" id="Layer_1" xmlns="http://www.w3.org/2000/svg" xmlns:xlink="http://www.w3.org/1999/xlink" x="0px" y="0px"
	 viewBox="0 0 220 220" style="enable-background:new 0 0 220 220;" xml:space="preserve">
<style type="text/css">
	.st0{fill:#EC1C24;}
	.st1{fill:#00377C;}
</style>
<g>
	<path class="st0" d="M150.47,45.59c0,0-38.02,16.49-54.23,56.64c-16.21,40.15,7.96,66.37,7.96,66.37H67.65
		c0,0-20.63-27.2-9.43-67.88c11.2-40.68,38.61-55.14,38.61-55.14H150.47z"/>
	<polygon class="st0" points="102.68,110.29 106.85,97.54 148.4,97.54 134.55,168.61 108.91,168.61 121.29,110.29 	"/>
	<path class="st0" d="M153.78,82.35c-1.91,7.76-8.3,13.22-14.28,12.2c-5.98-1.02-9.28-8.13-7.37-15.89
		c1.91-7.76,8.3-13.22,14.28-12.2C152.39,67.49,155.69,74.6,153.78,82.35"/>
	<path class="st1" d="M109.61,217.91c-59.44,0-107.8-48.36-107.8-107.8c0-59.44,48.36-107.79,107.8-107.79
		c59.44,0,107.79,48.36,107.79,107.79C217.4,169.55,169.04,217.91,109.61,217.91 M109.61,5.32c-57.79,0-104.8,47.01-104.8,104.79
		s47.01,104.8,104.8,104.8c57.78,0,104.79-47.01,104.79-104.8S167.39,5.32,109.61,5.32"/>
	<path class="st0" d="M39.3,166.6l-4.54,3.32l-0.66-0.91c0.27-0.3,0.53-0.63,0.77-1c-1.18-0.07-2.11-0.57-2.8-1.51
		c-0.81-1.11-1.04-2.26-0.7-3.45c0.34-1.19,1.14-2.25,2.4-3.17c1.35-0.99,2.68-1.46,3.98-1.4c1.3,0.06,2.36,0.65,3.19,1.78
		c0.69,0.95,0.98,1.9,0.88,2.87c-0.11,0.97-0.55,1.84-1.34,2.61l-1.63-1.71c0.92-0.91,1.07-1.77,0.47-2.59
		c-0.39-0.54-0.94-0.77-1.62-0.69c-0.69,0.08-1.49,0.45-2.39,1.11c-0.87,0.64-1.43,1.27-1.67,1.91c-0.24,0.63-0.16,1.23,0.24,1.78
		c0.26,0.36,0.61,0.59,1.05,0.7c0.44,0.11,0.91-0.02,1.42-0.39l-1.17-1.6l1.59-1.16L39.3,166.6z"/>
	<path class="st0" d="M44.26,175.27l-3.39-3.68c-0.11,0.09-0.2,0.17-0.27,0.24c-0.41,0.38-0.62,0.77-0.62,1.18
		c-0.01,0.41,0.13,0.76,0.41,1.07c0.52,0.56,1.13,0.62,1.84,0.18l1.29,1.64c-1.71,0.79-3.17,0.53-4.38-0.78
		c-0.53-0.57-0.86-1.16-1-1.77c-0.14-0.61-0.11-1.24,0.09-1.91c0.2-0.66,0.61-1.28,1.22-1.84c0.91-0.84,1.88-1.26,2.92-1.25
		c1.04,0.01,1.93,0.42,2.68,1.23c0.68,0.74,1,1.61,0.96,2.61C45.99,173.19,45.4,174.22,44.26,175.27 M41.85,170.67l1.87,2.04
		c0.74-0.78,0.83-1.46,0.29-2.05C43.42,170.02,42.7,170.03,41.85,170.67"/>
	
		<rect x="42.88" y="175.32" transform="matrix(0.6799 -0.7333 0.7333 0.6799 -113.9935 91.786)" class="st0" width="10.51" height="2.3"/>
	<path class="st0" d="M54.43,178.58l-4.96,5.99l-1.77-1.46l4.96-5.99L54.43,178.58z M56.32,176.31l-1.46,1.77l-1.77-1.46l1.46-1.77
		L56.32,176.31z"/>
	<path class="st0" d="M53.7,187.8l-1.8-1.31l4.58-6.29l1.7,1.24l-0.85,1.17c0.9-0.68,1.67-0.79,2.31-0.32
		c0.09,0.07,0.2,0.15,0.32,0.26l-1.33,1.83c-0.38-0.28-0.72-0.43-1.01-0.47c-0.29-0.04-0.62,0.05-0.97,0.25
		c-0.35,0.21-0.71,0.56-1.09,1.07L53.7,187.8z"/>
	<path class="st0" d="M69.11,185.09l-5.14,9.18l-2.14-1.2l5.14-9.18L69.11,185.09z M68.58,183.5c-0.24-0.13-0.39-0.32-0.45-0.56
		c-0.05-0.24-0.03-0.46,0.09-0.66c0.12-0.21,0.29-0.35,0.53-0.42c0.24-0.08,0.47-0.05,0.71,0.08c0.21,0.12,0.36,0.29,0.45,0.52
		c0.09,0.23,0.06,0.47-0.07,0.71c-0.13,0.24-0.32,0.38-0.56,0.43C69.04,183.67,68.8,183.63,68.58,183.5"/>
	<path class="st0" d="M77.32,189.04l-4.36,9.57l-1.93-0.88l0.5-1.11c-0.86,0.62-1.7,0.74-2.52,0.37c-0.78-0.36-1.25-0.96-1.41-1.8
		c-0.16-0.84,0.02-1.83,0.53-2.96c0.54-1.18,1.18-2,1.94-2.46c0.75-0.46,1.56-0.49,2.42-0.1c0.75,0.34,1.2,0.9,1.34,1.68l1.47-3.23
		L77.32,189.04z M72.81,193.57c0.51-1.11,0.42-1.82-0.25-2.13c-0.8-0.37-1.57,0.24-2.28,1.8c-0.64,1.4-0.58,2.27,0.18,2.61
		c0.29,0.13,0.6,0.12,0.93-0.03c0.33-0.15,0.61-0.46,0.82-0.93L72.81,193.57z"/>
	<path class="st0" d="M82.55,202l-2.11-0.71c0.03-0.31,0.12-0.71,0.28-1.19c-0.55,0.4-1.03,0.63-1.46,0.68
		c-0.42,0.05-0.87,0-1.34-0.16c-0.69-0.23-1.19-0.6-1.49-1.12c-0.3-0.52-0.34-1.09-0.13-1.72c0.15-0.46,0.42-0.85,0.8-1.15
		c0.38-0.31,0.88-0.48,1.5-0.52c0.62-0.04,1.68,0.13,3.17,0.51l0.14-0.42c0.24-0.72,0-1.19-0.71-1.43
		c-0.76-0.25-1.31-0.04-1.63,0.65l-1.95-0.86c0.41-0.79,1.01-1.25,1.79-1.38c0.78-0.13,1.59-0.05,2.43,0.23
		c0.5,0.17,0.95,0.38,1.36,0.65c0.4,0.26,0.69,0.56,0.86,0.87c0.17,0.32,0.26,0.62,0.26,0.91c0,0.29-0.11,0.76-0.33,1.41l-1.12,3.35
		C82.67,201.22,82.56,201.69,82.55,202 M81.42,197.69c-1.57-0.36-2.48-0.15-2.74,0.62c-0.09,0.26-0.08,0.51,0.02,0.75
		c0.1,0.24,0.29,0.41,0.59,0.51c0.38,0.12,0.76,0.07,1.13-0.16c0.36-0.23,0.63-0.58,0.78-1.05L81.42,197.69z"/>
	<path class="st0" d="M87.76,203.31l-2.17-0.52l1.8-7.57l2.04,0.49l-0.34,1.41c0.57-0.97,1.23-1.37,2.01-1.19
		c0.11,0.03,0.24,0.07,0.4,0.12l-0.52,2.2c-0.45-0.11-0.82-0.12-1.11-0.04c-0.29,0.08-0.55,0.28-0.8,0.61
		c-0.25,0.32-0.44,0.79-0.59,1.41L87.76,203.31z"/>
	<path class="st0" d="M99.7,201.86l-4.96-0.73c-0.03,0.13-0.04,0.26-0.06,0.36c-0.08,0.55,0,0.98,0.25,1.31
		c0.25,0.32,0.58,0.51,0.99,0.57c0.76,0.11,1.27-0.22,1.54-1.01l2.03,0.46c-0.84,1.69-2.13,2.41-3.89,2.15
		c-0.77-0.11-1.4-0.36-1.89-0.75c-0.49-0.39-0.87-0.9-1.13-1.54c-0.26-0.64-0.33-1.37-0.21-2.19c0.18-1.23,0.68-2.16,1.48-2.81
		c0.81-0.65,1.76-0.89,2.86-0.73c0.99,0.14,1.79,0.62,2.39,1.42C99.73,199.16,99.92,200.33,99.7,201.86 M94.93,199.81l2.74,0.4
		c0.09-1.07-0.27-1.66-1.07-1.78C95.74,198.31,95.18,198.76,94.93,199.81"/>
	<path class="st0" d="M108.19,199.95l-1.69,0.37c-0.16-0.71-0.65-1.09-1.46-1.13c-0.77-0.04-1.17,0.18-1.19,0.64
		c-0.01,0.19,0.05,0.34,0.19,0.45c0.13,0.12,0.5,0.23,1.09,0.33c0.88,0.16,1.53,0.33,1.95,0.5c0.42,0.18,0.74,0.45,0.97,0.83
		c0.23,0.38,0.33,0.83,0.31,1.36c-0.04,0.8-0.38,1.44-1.01,1.91c-0.63,0.47-1.5,0.68-2.59,0.63c-1.98-0.09-3.12-0.92-3.43-2.47
		l1.95-0.19c0.12,0.71,0.68,1.08,1.67,1.13c0.38,0.02,0.7-0.04,0.97-0.16c0.27-0.12,0.41-0.3,0.42-0.53
		c0.02-0.36-0.26-0.59-0.84-0.68c-1.56-0.27-2.58-0.62-3.05-1.05c-0.47-0.43-0.69-1.01-0.66-1.74c0.04-0.74,0.35-1.33,0.95-1.79
		c0.6-0.46,1.41-0.66,2.45-0.6c0.82,0.04,1.47,0.23,1.95,0.58C107.61,198.69,107.96,199.22,108.19,199.95"/>
	<path class="st0" d="M112.79,195.03l0.05,2.29l-2.29,0.05l-0.06-2.3L112.79,195.03z M112.86,197.98l0.18,7.78l-2.29,0.05
		l-0.18-7.78L112.86,197.98z"/>
	<path class="st0" d="M119.78,194.79l4.83-0.81c0.87-0.15,1.54-0.15,2.01-0.01c0.47,0.14,0.88,0.38,1.23,0.73
		c0.35,0.35,0.57,0.8,0.67,1.37c0.19,1.15-0.3,2.02-1.48,2.61c0.75,0.04,1.34,0.27,1.78,0.7c0.44,0.42,0.71,0.92,0.8,1.48
		c0.13,0.78-0.05,1.49-0.54,2.16c-0.49,0.66-1.4,1.11-2.72,1.33l-4.83,0.81L119.78,194.79z M122.51,196.22l0.38,2.27l1.84-0.31
		c0.67-0.11,1.07-0.32,1.21-0.61c0.13-0.29,0.17-0.56,0.13-0.81c-0.04-0.26-0.15-0.48-0.33-0.64c-0.17-0.17-0.35-0.26-0.53-0.28
		c-0.18-0.02-0.52,0.01-1.03,0.1L122.51,196.22z M123.2,200.33l0.42,2.5l1.87-0.31c0.64-0.11,1.07-0.29,1.29-0.56
		c0.23-0.27,0.31-0.6,0.24-1c-0.06-0.33-0.23-0.6-0.53-0.8c-0.29-0.2-0.73-0.25-1.32-0.15L123.2,200.33z"/>
	<path class="st0" d="M139.55,201.1l-2.14,0.62c-0.16-0.28-0.3-0.66-0.44-1.14c-0.22,0.64-0.49,1.1-0.81,1.38
		c-0.32,0.28-0.72,0.49-1.19,0.63c-0.7,0.2-1.32,0.18-1.86-0.08c-0.54-0.25-0.9-0.7-1.09-1.34c-0.13-0.47-0.13-0.94,0-1.41
		c0.14-0.46,0.45-0.89,0.94-1.28c0.49-0.38,1.46-0.84,2.9-1.38l-0.12-0.43c-0.21-0.72-0.68-0.98-1.4-0.78
		c-0.77,0.22-1.1,0.71-0.98,1.46l-2.09,0.39c-0.11-0.89,0.12-1.61,0.69-2.15c0.57-0.55,1.28-0.95,2.12-1.19
		c0.51-0.15,1-0.22,1.49-0.24c0.48-0.01,0.89,0.06,1.21,0.23c0.32,0.16,0.56,0.36,0.73,0.6c0.16,0.24,0.34,0.69,0.53,1.34l0.98,3.39
		C139.2,200.39,139.38,200.84,139.55,201.1 M136.18,198.19c-1.5,0.6-2.13,1.29-1.9,2.06c0.07,0.26,0.22,0.46,0.44,0.61
		c0.22,0.14,0.48,0.17,0.78,0.08c0.39-0.11,0.67-0.37,0.84-0.77c0.17-0.4,0.19-0.84,0.05-1.31L136.18,198.19z"/>
	<path class="st0" d="M145.18,199.15l0.03,0.65c0.08-0.05,0.15-0.09,0.2-0.11c0.36-0.14,0.7-0.16,1.02-0.04s0.54,0.32,0.66,0.62
		c0.14,0.36,0.12,0.7-0.05,1.02c-0.18,0.32-0.49,0.57-0.93,0.75c-0.5,0.2-1.05,0.26-1.66,0.17l-0.01-0.71
		c0.49,0.06,0.86,0.04,1.11-0.06c0.34-0.14,0.46-0.36,0.33-0.67c-0.07-0.17-0.19-0.26-0.38-0.29c-0.19-0.03-0.39,0-0.6,0.08
		c-0.09,0.04-0.22,0.1-0.37,0.18l-0.05-1.34c-1.51,0.41-2.67,0.06-3.47-1.05l1.69-0.98c0.41,0.59,1.07,0.7,1.99,0.33
		c0.35-0.14,0.63-0.32,0.82-0.55c0.19-0.22,0.25-0.45,0.16-0.66c-0.13-0.34-0.48-0.43-1.05-0.27c-1.53,0.4-2.6,0.51-3.21,0.32
		c-0.61-0.2-1.05-0.63-1.32-1.31c-0.27-0.69-0.24-1.36,0.12-2.02c0.36-0.66,1.01-1.19,1.98-1.57c0.76-0.3,1.43-0.4,2.01-0.29
		c0.58,0.12,1.12,0.46,1.63,1.02l-1.38,1.04c-0.44-0.58-1.04-0.72-1.8-0.42c-0.71,0.29-0.99,0.65-0.81,1.08
		c0.07,0.17,0.19,0.28,0.36,0.33c0.17,0.05,0.55,0,1.13-0.15c0.87-0.22,1.53-0.34,1.98-0.36c0.45-0.02,0.86,0.1,1.23,0.35
		c0.37,0.24,0.65,0.62,0.85,1.11c0.28,0.7,0.26,1.39-0.07,2.08C146.96,198.11,146.26,198.69,145.18,199.15"/>
	<path class="st0" d="M153,189.63l4.62,3.39l-2.25,1.17l-3.07-2.37l-0.48,2l0.91,1.75l-1.92,1l-4.86-9.32l1.92-1l2.91,5.59l0.1-0.53
		c0.04-0.24,0.07-0.43,0.1-0.58l0.78-3.42l1.99-1.04L153,189.63z"/>
	<path class="st0" d="M165.33,187.99l-1.86,1.23c-0.23-0.22-0.49-0.53-0.76-0.96c-0.02,0.68-0.14,1.2-0.36,1.57
		c-0.22,0.37-0.54,0.69-0.95,0.96c-0.61,0.4-1.21,0.56-1.8,0.48c-0.59-0.08-1.07-0.4-1.44-0.96c-0.27-0.41-0.41-0.86-0.42-1.34
		c-0.01-0.49,0.16-0.99,0.52-1.5c0.35-0.52,1.14-1.25,2.35-2.19l-0.25-0.37c-0.42-0.63-0.94-0.74-1.57-0.32
		c-0.67,0.44-0.83,1.01-0.49,1.69l-1.88,1.01c-0.37-0.81-0.37-1.57,0.01-2.26c0.38-0.69,0.93-1.28,1.67-1.77
		c0.44-0.29,0.89-0.52,1.35-0.67c0.46-0.16,0.86-0.21,1.22-0.14c0.35,0.06,0.65,0.18,0.87,0.36c0.23,0.18,0.53,0.55,0.91,1.12
		l1.95,2.94C164.79,187.42,165.1,187.8,165.33,187.99 M161.24,186.23c-1.25,1.02-1.65,1.87-1.2,2.54c0.15,0.23,0.35,0.38,0.6,0.45
		c0.25,0.07,0.5,0.02,0.77-0.15c0.34-0.22,0.53-0.55,0.57-0.98c0.04-0.43-0.07-0.85-0.35-1.26L161.24,186.23z"/>
	<path class="st0" d="M173.16,181.73l-1.77,1.46l-2.79-3.37c-0.34-0.41-0.58-0.68-0.74-0.8c-0.15-0.12-0.34-0.19-0.55-0.19
		c-0.21,0-0.41,0.07-0.59,0.22c-0.62,0.51-0.55,1.23,0.21,2.15l2.78,3.37l-1.77,1.46l-4.96-6l1.64-1.36l0.84,1.02
		c-0.13-0.71-0.12-1.24,0.04-1.6c0.15-0.36,0.38-0.67,0.69-0.92c0.57-0.47,1.16-0.7,1.76-0.68c0.6,0.02,1.28,0.48,2.02,1.38
		L173.16,181.73z"/>
	
		<rect x="171.51" y="169.68" transform="matrix(0.7168 -0.6972 0.6972 0.7168 -73.0848 169.9246)" class="st0" width="2.29" height="10.52"/>
	
		<rect x="176.04" y="168.35" transform="matrix(0.6771 -0.7359 0.7359 0.6771 -69.5378 186.0009)" class="st0" width="2.29" height="7.78"/>
	<path class="st0" d="M174.66,163.92l0.74-0.96c0.58,0.35,1.1,0.23,1.55-0.35c0.47-0.6,0.46-1.13-0.02-1.61l0.74-0.95
		c0.49,0.49,0.76,1.04,0.8,1.62c0.04,0.59-0.16,1.15-0.58,1.7c-0.4,0.52-0.88,0.84-1.44,0.97
		C175.89,164.47,175.29,164.33,174.66,163.92 M181.77,160.83c-0.19,0.16-0.33,0.3-0.43,0.43c-0.31,0.4-0.32,0.78-0.02,1.12
		c0.6-0.06,1.12,0.08,1.55,0.42c0.58,0.45,0.85,1.06,0.82,1.81c-0.03,0.75-0.41,1.59-1.12,2.5c-0.25,0.32-0.53,0.62-0.83,0.88
		c-0.04,0.3,0.03,0.53,0.23,0.68c0.21,0.16,0.42,0.19,0.62,0.07c0.21-0.12,0.58-0.5,1.13-1.14c0.79-0.91,1.35-1.51,1.7-1.81
		c0.35-0.3,0.75-0.47,1.2-0.51c0.45-0.04,0.88,0.1,1.27,0.4c0.56,0.44,0.83,1.07,0.82,1.89c-0.02,0.82-0.54,1.9-1.58,3.22
		c-0.97,1.24-1.76,1.98-2.37,2.2c-0.61,0.22-1.12,0.17-1.53-0.15c-0.55-0.43-0.64-1.06-0.29-1.91c-0.67,0.32-1.23,0.29-1.7-0.08
		c-0.59-0.46-0.73-1.22-0.42-2.3c-0.86,0.49-1.65,0.46-2.35-0.08c-0.57-0.45-0.84-1.06-0.8-1.83c0.04-0.78,0.4-1.61,1.08-2.49
		c0.44-0.56,0.95-1.03,1.53-1.41c-0.32-0.31-0.53-0.63-0.62-0.98c-0.09-0.35,0.07-0.79,0.5-1.34c0.14-0.18,0.29-0.34,0.45-0.47
		L181.77,160.83z M179.73,164.91c-0.24,0.31-0.35,0.62-0.32,0.93c0.03,0.31,0.18,0.57,0.46,0.78c0.62,0.49,1.19,0.4,1.71-0.27
		c0.25-0.32,0.36-0.65,0.32-0.97c-0.04-0.32-0.19-0.59-0.45-0.79c-0.24-0.19-0.52-0.27-0.84-0.24
		C180.3,164.37,180.01,164.56,179.73,164.91 M184.03,170.2c-0.06,0.07-0.08,0.2-0.07,0.39c0.01,0.19,0.08,0.34,0.22,0.44
		c0.28,0.21,0.59,0.17,0.93-0.12c0.34-0.3,0.7-0.69,1.07-1.16c0.49-0.62,0.78-1.09,0.88-1.41c0.1-0.32,0.05-0.56-0.16-0.72
		c-0.16-0.12-0.36-0.11-0.61,0.03c-0.25,0.14-0.73,0.66-1.43,1.57l-0.28,0.37c-0.17,0.22-0.3,0.37-0.37,0.44
		C184.14,170.09,184.08,170.15,184.03,170.2"/>
	
		<rect x="185.23" y="156.58" transform="matrix(0.5494 -0.8356 0.8356 0.5494 -50.0989 228.0485)" class="st0" width="2.3" height="7.78"/>
	<polygon class="st1" points="26,83.61 16.94,80.71 15.9,83.94 14.05,83.35 16.83,74.69 18.68,75.28 17.64,78.51 26.7,81.41 	"/>
	
		<rect x="25.96" y="76.13" transform="matrix(0.3612 -0.9325 0.9325 0.3612 -54.7318 74.5655)" class="st1" width="2.2" height="2.19"/>
	<path class="st1" d="M28.63,66.25l1.63-1.69c0.97,0.86,1.55,1.79,1.74,2.77c0.19,0.99,0.01,2.03-0.53,3.13
		c-0.68,1.36-1.7,2.25-3.06,2.67c-1.37,0.42-2.86,0.23-4.47-0.57c-1.71-0.85-2.82-1.94-3.32-3.29c-0.51-1.35-0.41-2.74,0.3-4.18
		c0.62-1.25,1.5-2.09,2.63-2.51c0.67-0.25,1.47-0.29,2.41-0.11l-0.53,2.29c-0.59-0.14-1.14-0.1-1.63,0.14
		c-0.5,0.23-0.89,0.62-1.16,1.17c-0.38,0.76-0.41,1.51-0.1,2.26c0.31,0.75,1.08,1.42,2.3,2.02c1.3,0.64,2.34,0.87,3.12,0.67
		c0.78-0.2,1.36-0.66,1.73-1.41c0.27-0.55,0.33-1.11,0.18-1.68C29.71,67.35,29.3,66.79,28.63,66.25"/>
	
		<rect x="32.92" y="62.08" transform="matrix(0.5216 -0.8532 0.8532 0.5216 -37.6279 59.2491)" class="st1" width="2.19" height="2.2"/>
	<polygon class="st1" points="39.01,57.5 30.15,50.24 31.61,48.45 35.1,51.31 37.97,47.81 34.49,44.95 35.95,43.16 44.81,50.42 
		43.34,52.21 39.47,49.03 36.6,52.54 40.47,55.71 	"/>
	<path class="st1" d="M43.41,43.68l-1.68,1.13c-0.4-0.73-0.54-1.42-0.41-2.08c0.12-0.66,0.57-1.36,1.34-2.11
		c0.7-0.68,1.31-1.11,1.81-1.27c0.5-0.17,0.95-0.19,1.34-0.07c0.39,0.12,0.92,0.52,1.58,1.21l1.77,1.85
		c0.51,0.52,0.91,0.88,1.2,1.08c0.29,0.2,0.65,0.37,1.06,0.52l-1.56,1.51c-0.14-0.06-0.34-0.17-0.6-0.32
		c-0.12-0.07-0.2-0.11-0.24-0.13c-0.02,0.52-0.11,1-0.29,1.43c-0.18,0.43-0.44,0.81-0.79,1.15c-0.61,0.6-1.26,0.9-1.93,0.91
		c-0.68,0.01-1.26-0.24-1.75-0.75c-0.33-0.34-0.54-0.71-0.63-1.13c-0.1-0.42-0.07-0.84,0.09-1.26c0.15-0.42,0.45-0.95,0.89-1.58
		c0.6-0.85,0.99-1.48,1.15-1.87l-0.15-0.16c-0.29-0.3-0.58-0.44-0.85-0.43c-0.27,0.02-0.62,0.23-1.03,0.63
		c-0.28,0.27-0.44,0.54-0.5,0.8C43.17,42.99,43.24,43.31,43.41,43.68 M46.76,42.91c-0.14,0.26-0.38,0.65-0.72,1.17
		c-0.35,0.52-0.54,0.89-0.59,1.11c-0.06,0.35,0.01,0.63,0.23,0.85c0.21,0.22,0.48,0.33,0.8,0.33c0.32,0,0.61-0.12,0.86-0.37
		c0.28-0.28,0.46-0.63,0.54-1.07c0.05-0.33,0.01-0.62-0.13-0.88c-0.09-0.18-0.32-0.45-0.68-0.83L46.76,42.91z"/>
	<path class="st1" d="M51.85,43.57l-1.07-1.33l0.18-4.73c0.03-0.77,0.07-1.33,0.1-1.68c-0.19,0.17-0.44,0.39-0.76,0.66l-2.27,1.85
		l-1.14-1.42l5.34-4.3l0.98,1.21l-0.18,4.84l-0.11,1.64c0.45-0.41,0.74-0.66,0.85-0.75l2.65-2.13l1.21,1.5L51.85,43.57z"/>
	<path class="st1" d="M53.3,30.49l-1.16-1.67l1.8-1.25l1.16,1.67L53.3,30.49z M58.7,38.22l-4.75-6.8l1.8-1.26l4.75,6.8L58.7,38.22z"
		/>
	<path class="st1" d="M68.65,31.97l-1.89,1.11l-2.14-3.65c-0.45-0.77-0.79-1.25-1-1.43c-0.21-0.18-0.45-0.28-0.71-0.3
		c-0.25-0.02-0.51,0.05-0.77,0.2c-0.33,0.19-0.57,0.45-0.72,0.79c-0.16,0.33-0.2,0.68-0.12,1.03c0.08,0.35,0.35,0.93,0.82,1.73
		l1.9,3.24l-1.89,1.11l-4.2-7.16l1.76-1.03l0.62,1.05c0.15-1.17,0.7-2.04,1.65-2.6c0.42-0.25,0.84-0.39,1.28-0.45
		c0.43-0.05,0.81-0.01,1.12,0.12c0.32,0.13,0.59,0.32,0.84,0.58c0.24,0.26,0.53,0.66,0.85,1.21L68.65,31.97z"/>
	<path class="st1" d="M73.68,26.7l2.14-0.57c0.08,0.85-0.08,1.59-0.45,2.22c-0.38,0.63-0.98,1.14-1.81,1.51
		c-1.31,0.6-2.48,0.61-3.5,0.04c-0.81-0.46-1.45-1.21-1.93-2.26c-0.57-1.25-0.69-2.38-0.36-3.39c0.33-1.01,1-1.74,2-2.19
		c1.12-0.51,2.18-0.54,3.17-0.1c0.99,0.45,1.82,1.44,2.48,2.99l-5.01,2.28c0.28,0.59,0.65,0.97,1.11,1.16
		c0.46,0.19,0.92,0.18,1.38-0.03c0.31-0.14,0.54-0.35,0.67-0.61C73.71,27.47,73.74,27.12,73.68,26.7 M72.88,24.62
		c-0.28-0.57-0.63-0.94-1.05-1.11c-0.42-0.17-0.84-0.17-1.24,0.02c-0.44,0.2-0.72,0.52-0.86,0.97c-0.14,0.45-0.08,0.94,0.17,1.48
		L72.88,24.62z"/>
	<path class="st1" d="M84.55,25.54l-5.49-7.06l2.22-0.63l2.66,3.64l0.82,1.24c0.02-0.38,0.02-0.63,0.02-0.75
		c0.01-0.24,0.02-0.49,0.03-0.74l0.36-4.51l2.17-0.62L86.45,25L84.55,25.54z"/>
	<path class="st1" d="M94.93,20.45l2.22-0.03c-0.13,0.84-0.46,1.52-0.99,2.04c-0.52,0.52-1.23,0.86-2.13,1.02
		c-1.42,0.26-2.55-0.02-3.4-0.82c-0.67-0.65-1.11-1.54-1.31-2.67c-0.24-1.35-0.08-2.48,0.49-3.37c0.57-0.9,1.39-1.44,2.48-1.63
		c1.21-0.22,2.24,0.01,3.09,0.69c0.85,0.67,1.4,1.84,1.67,3.5l-5.41,0.98c0.13,0.64,0.4,1.11,0.79,1.4c0.4,0.3,0.84,0.4,1.34,0.31
		c0.34-0.06,0.61-0.21,0.8-0.43C94.77,21.21,94.89,20.88,94.93,20.45 M94.66,18.24c-0.13-0.62-0.38-1.07-0.74-1.34
		c-0.37-0.27-0.77-0.36-1.21-0.29c-0.47,0.08-0.83,0.33-1.07,0.73c-0.25,0.4-0.31,0.89-0.2,1.48L94.66,18.24z"/>
	<polygon class="st1" points="103.38,21.97 103.31,10.51 106.77,10.49 108.9,18.29 110.9,10.47 114.37,10.45 114.44,21.9 
		112.29,21.91 112.24,12.9 110.02,21.93 107.79,21.94 105.47,12.94 105.52,21.96 	"/>
	<path class="st1" d="M118.69,16.61l-1.94-0.59c0.31-0.77,0.77-1.32,1.35-1.64c0.59-0.32,1.42-0.42,2.49-0.29
		c0.97,0.11,1.68,0.31,2.13,0.6c0.45,0.28,0.75,0.62,0.9,0.99c0.15,0.38,0.17,1.04,0.06,1.99l-0.32,2.54
		c-0.08,0.73-0.11,1.26-0.08,1.61c0.03,0.35,0.12,0.74,0.26,1.15l-2.16-0.25c-0.04-0.15-0.09-0.37-0.13-0.67
		c-0.02-0.13-0.04-0.22-0.05-0.27c-0.41,0.32-0.84,0.54-1.29,0.68c-0.45,0.13-0.91,0.17-1.39,0.11c-0.85-0.1-1.49-0.41-1.92-0.92
		c-0.44-0.52-0.61-1.13-0.53-1.83c0.05-0.46,0.21-0.87,0.48-1.21c0.26-0.34,0.61-0.58,1.03-0.73c0.42-0.15,1.02-0.25,1.79-0.31
		c1.04-0.07,1.77-0.17,2.18-0.29l0.02-0.22c0.05-0.42-0.02-0.73-0.21-0.93c-0.19-0.2-0.57-0.34-1.14-0.41
		c-0.39-0.04-0.7,0-0.93,0.12C119.07,15.99,118.87,16.24,118.69,16.61 M121.4,18.72c-0.29,0.06-0.75,0.12-1.37,0.18
		c-0.62,0.06-1.03,0.14-1.23,0.24c-0.31,0.17-0.48,0.41-0.52,0.72c-0.04,0.3,0.05,0.58,0.25,0.83c0.2,0.25,0.48,0.39,0.83,0.43
		c0.39,0.05,0.78-0.04,1.17-0.26c0.29-0.17,0.49-0.39,0.6-0.66c0.08-0.18,0.15-0.53,0.21-1.05L121.4,18.72z"/>
	
		<rect x="121.43" y="16.79" transform="matrix(0.1885 -0.9821 0.9821 0.1885 85.627 139.3943)" class="st1" width="11.45" height="2.2"/>
	<path class="st1" d="M129.22,24.17l1.96-8.06l2.13,0.52l-1.96,8.06L129.22,24.17z M131.45,15.01l0.48-1.97l2.13,0.52l-0.48,1.97
		L131.45,15.01z"/>
	<path class="st1" d="M134.91,16.95l2.22,0.72l0.07,6.21l3.66-5l2.16,0.7l-5.25,6.69l-0.94,1.21c-0.33,0.4-0.62,0.69-0.87,0.88
		c-0.25,0.19-0.5,0.32-0.76,0.41c-0.26,0.08-0.57,0.11-0.91,0.09c-0.34-0.02-0.71-0.09-1.11-0.22c-0.4-0.13-0.78-0.3-1.14-0.51
		l0.34-1.69c0.31,0.17,0.59,0.3,0.85,0.38c0.49,0.16,0.89,0.13,1.22-0.08c0.33-0.21,0.62-0.52,0.89-0.91L134.91,16.95z"/>
	<path class="st1" d="M146.97,27.43l1.86,1.21c-0.58,0.62-1.23,1-1.96,1.14c-0.72,0.14-1.5,0.03-2.34-0.34
		c-1.32-0.58-2.11-1.44-2.37-2.58c-0.2-0.91-0.07-1.89,0.4-2.95c0.55-1.26,1.31-2.1,2.28-2.53c0.97-0.43,1.96-0.42,2.97,0.02
		c1.13,0.49,1.86,1.26,2.19,2.29c0.33,1.03,0.14,2.31-0.57,3.84l-5.04-2.21c-0.25,0.6-0.29,1.14-0.12,1.6
		c0.16,0.47,0.48,0.8,0.94,1.01c0.31,0.14,0.62,0.17,0.91,0.09C146.4,27.97,146.69,27.76,146.97,27.43 M147.97,25.45
		c0.24-0.59,0.29-1.1,0.13-1.52c-0.15-0.43-0.44-0.73-0.85-0.91c-0.44-0.19-0.87-0.19-1.3,0c-0.43,0.2-0.76,0.57-0.99,1.12
		L147.97,25.45z"/>
	<path class="st1" d="M159.4,23.87l3.84,2.49c0.76,0.49,1.31,0.89,1.64,1.2c0.33,0.31,0.58,0.66,0.75,1.05
		c0.16,0.39,0.24,0.82,0.21,1.28c-0.02,0.46-0.17,0.9-0.43,1.31c-0.29,0.45-0.68,0.79-1.17,1c-0.49,0.22-1,0.29-1.54,0.21
		c0.47,0.55,0.74,1.13,0.78,1.75c0.05,0.61-0.11,1.2-0.47,1.75c-0.28,0.44-0.66,0.79-1.13,1.08c-0.47,0.28-0.96,0.43-1.48,0.45
		c-0.51,0.02-1.04-0.11-1.6-0.39c-0.35-0.18-1.14-0.66-2.38-1.45l-3.27-2.12L159.4,23.87z M157.81,30.54l-1.67,2.57l1.79,1.17
		c0.7,0.45,1.16,0.72,1.37,0.8c0.32,0.14,0.64,0.16,0.95,0.08c0.31-0.08,0.58-0.3,0.8-0.64c0.19-0.29,0.28-0.58,0.27-0.87
		c-0.01-0.29-0.12-0.57-0.32-0.83c-0.2-0.26-0.75-0.68-1.63-1.25L157.81,30.54z M160.3,26.73l-1.44,2.22l1.27,0.82
		c0.75,0.49,1.23,0.79,1.43,0.88c0.36,0.18,0.69,0.23,1.01,0.17c0.31-0.07,0.57-0.25,0.77-0.57c0.19-0.3,0.27-0.59,0.22-0.88
		c-0.04-0.29-0.21-0.56-0.51-0.81c-0.18-0.15-0.72-0.52-1.64-1.11L160.3,26.73z"/>
	<path class="st1" d="M167.4,36.34l-1.31-1.54c0.68-0.48,1.36-0.69,2.03-0.64c0.67,0.05,1.42,0.42,2.25,1.11
		c0.76,0.62,1.24,1.17,1.47,1.66c0.22,0.48,0.29,0.93,0.22,1.32c-0.08,0.4-0.42,0.97-1.02,1.7l-1.65,1.96
		c-0.46,0.56-0.78,1-0.95,1.31c-0.17,0.31-0.3,0.68-0.4,1.11l-1.68-1.38c0.05-0.15,0.13-0.36,0.25-0.64
		c0.05-0.12,0.09-0.21,0.1-0.25c-0.52,0.04-1,0-1.45-0.13c-0.45-0.13-0.86-0.35-1.23-0.66c-0.66-0.54-1.03-1.15-1.12-1.82
		c-0.08-0.67,0.1-1.28,0.55-1.83c0.3-0.36,0.65-0.61,1.06-0.75c0.41-0.14,0.83-0.16,1.26-0.05c0.44,0.11,0.99,0.34,1.67,0.72
		c0.91,0.5,1.58,0.82,1.99,0.94l0.14-0.17c0.27-0.33,0.38-0.62,0.33-0.9c-0.05-0.27-0.29-0.59-0.74-0.96
		c-0.3-0.25-0.59-0.38-0.85-0.4C168.06,36.04,167.75,36.13,167.4,36.34 M168.53,39.59c-0.28-0.1-0.69-0.3-1.24-0.59
		c-0.55-0.29-0.94-0.44-1.17-0.47c-0.35-0.02-0.62,0.08-0.82,0.32c-0.2,0.24-0.28,0.51-0.24,0.83c0.03,0.32,0.19,0.59,0.46,0.82
		c0.3,0.25,0.68,0.39,1.12,0.42c0.33,0.02,0.62-0.06,0.87-0.23c0.16-0.11,0.41-0.36,0.75-0.77L168.53,39.59z"/>
	<polygon class="st1" points="169,45.25 177.12,37.18 178.67,38.73 174.36,43.02 178.24,42.78 180.15,44.69 176,44.82 174.41,50.69 
		172.74,49.01 173.91,44.91 172.43,44.94 170.55,46.81 	"/>
	<path class="st1" d="M180.56,49.11l-0.98-1.77c0.76-0.33,1.47-0.41,2.11-0.23c0.64,0.18,1.31,0.69,1.99,1.52
		c0.62,0.76,0.99,1.4,1.12,1.91c0.12,0.52,0.11,0.96-0.04,1.34c-0.15,0.38-0.6,0.87-1.34,1.47l-2,1.6c-0.56,0.46-0.96,0.83-1.18,1.1
		c-0.22,0.27-0.43,0.61-0.61,1.01l-1.37-1.68c0.08-0.14,0.2-0.33,0.37-0.57c0.08-0.11,0.13-0.19,0.15-0.22
		c-0.52-0.06-0.99-0.2-1.4-0.41c-0.41-0.22-0.77-0.51-1.08-0.89c-0.54-0.66-0.79-1.33-0.74-2c0.05-0.67,0.34-1.24,0.89-1.68
		c0.36-0.3,0.76-0.47,1.18-0.53c0.43-0.06,0.84,0,1.25,0.19c0.41,0.19,0.91,0.53,1.5,1.03c0.8,0.67,1.39,1.11,1.77,1.31l0.17-0.14
		c0.33-0.27,0.49-0.54,0.5-0.81c0.01-0.28-0.17-0.64-0.54-1.08c-0.25-0.3-0.5-0.49-0.76-0.56
		C181.27,48.93,180.94,48.97,180.56,49.11 M181.04,52.51c-0.25-0.16-0.62-0.43-1.1-0.82c-0.49-0.39-0.84-0.62-1.05-0.68
		c-0.34-0.09-0.63-0.04-0.87,0.16c-0.24,0.2-0.37,0.45-0.4,0.77c-0.03,0.32,0.07,0.62,0.29,0.89c0.25,0.31,0.59,0.52,1.02,0.63
		c0.32,0.08,0.62,0.06,0.89-0.05c0.18-0.08,0.48-0.28,0.88-0.61L181.04,52.51z"/>
	<path class="st1" d="M184.59,64.51l-1.21-1.83l3.54-2.33c0.75-0.49,1.21-0.85,1.38-1.07c0.17-0.22,0.25-0.46,0.26-0.72
		c0.01-0.26-0.07-0.51-0.24-0.76c-0.21-0.32-0.48-0.55-0.82-0.68c-0.34-0.14-0.68-0.16-1.03-0.06c-0.35,0.1-0.91,0.4-1.68,0.91
		l-3.14,2.06l-1.21-1.83l6.93-4.56l1.12,1.7l-1.02,0.67c1.18,0.09,2.07,0.59,2.68,1.51c0.27,0.4,0.44,0.82,0.51,1.25
		c0.07,0.43,0.06,0.8-0.06,1.13c-0.11,0.32-0.29,0.61-0.53,0.86c-0.24,0.26-0.63,0.56-1.17,0.91L184.59,64.51z"/>
	
		<rect x="185.36" y="63.4" transform="matrix(0.8762 -0.482 0.482 0.8762 -7.4239 100.0976)" class="st1" width="11.45" height="2.2"/>
	
		<rect x="187.63" y="68.17" transform="matrix(0.899 -0.438 0.438 0.899 -10.9662 91.0014)" class="st1" width="8.3" height="2.19"/>
	<path class="st1" d="M188.86,73.9l0.63,2.45c-0.26,0.15-0.41,0.31-0.45,0.49c-0.07,0.25-0.02,0.58,0.14,1
		c0.21,0.53,0.45,0.9,0.71,1.11c0.18,0.14,0.4,0.21,0.68,0.21c0.2,0,0.52-0.1,0.98-0.27l1.13-0.44c-1.07-0.28-1.79-0.89-2.16-1.82
		c-0.41-1.04-0.29-2.03,0.35-2.98c0.51-0.75,1.28-1.32,2.31-1.73c1.29-0.51,2.41-0.59,3.33-0.23c0.93,0.35,1.57,0.99,1.94,1.92
		c0.38,0.96,0.27,1.91-0.33,2.86l1.08-0.42l0.75,1.91l-6.93,2.72c-0.91,0.36-1.62,0.55-2.13,0.58c-0.51,0.03-0.95-0.05-1.31-0.22
		c-0.36-0.17-0.71-0.45-1.03-0.85c-0.32-0.4-0.62-0.94-0.89-1.63c-0.51-1.31-0.66-2.32-0.42-3.05c0.23-0.72,0.69-1.22,1.38-1.49
		C188.68,73.96,188.76,73.93,188.86,73.9 M194.11,73.94c-0.82,0.32-1.36,0.72-1.61,1.18c-0.25,0.47-0.29,0.93-0.11,1.4
		c0.2,0.5,0.56,0.85,1.08,1.04c0.52,0.19,1.17,0.14,1.94-0.16c0.8-0.31,1.33-0.71,1.59-1.19c0.26-0.48,0.29-0.98,0.09-1.48
		c-0.19-0.49-0.54-0.82-1.05-0.99C195.53,73.57,194.89,73.64,194.11,73.94 M202.08,74.19l0.39,1c-0.68,0.2-1.29,0.17-1.83-0.08
		c-0.53-0.26-0.93-0.71-1.18-1.35c-0.25-0.65-0.27-1.24-0.06-1.8c0.22-0.55,0.64-0.99,1.28-1.3l0.39,1
		c-0.33,0.17-0.54,0.39-0.64,0.67c-0.09,0.28-0.06,0.62,0.09,1.01c0.16,0.4,0.36,0.67,0.62,0.8
		C201.41,74.27,201.72,74.29,202.08,74.19"/>
	
		<rect x="192.9" y="81.59" transform="matrix(0.9568 -0.2906 0.2906 0.9568 -15.5265 60.8339)" class="st1" width="8.3" height="2.2"/>
</g>
</svg>
