<?xml version="1.0" encoding="utf-8"?>
<!-- Generator: Adobe Illustrator 24.3.0, SVG Export Plug-In . SVG Version: 6.00 Build 0)  -->
<svg version="1.1" id="Layer_1" xmlns="http://www.w3.org/2000/svg" xmlns:xlink="http://www.w3.org/1999/xlink" x="0px" y="0px"
	 viewBox="0 0 1131.7 294.8" style="enable-background:new 0 0 1131.7 294.8;" xml:space="preserve">
<style type="text/css">
	.st0{display:none;}
	.st1{display:inline;}
	.st2{fill:#404041;}
	.st3{fill:#E6A32F;}
	.st4{fill:url(#SVGID_1_);}
	.st5{display:inline;fill:url(#SVGID_2_);}
	.st6{fill:#231F20;}
	.st7{fill:#FFFFFF;}
</style>
<g class="st0">
	<g class="st1">
		<path class="st2" d="M469,70.3h66v25.1h-40.6v50.6h34.9v25.2h-34.9v50.6h40.6v25.1h-66V70.3z"/>
		<path class="st2" d="M565.5,70.3l16.6,49.7l16.5-49.7h25.6l-29.3,88.3l29.3,88.3h-25.6L582,197.1l-16.6,49.7h-25.6l29.3-88.3
			l-29.3-88.3H565.5z"/>
		<path class="st2" d="M701.4,70.3v25.1h-23.8v151.4h-25.5V95.4h-23.8V70.3H701.4z"/>
		<path class="st2" d="M735.4,104.5c0-24.7,12.2-37.1,36.5-37.1c24.4,0,36.6,12.4,36.6,37.1v23.8h-25.5v-23.8
			c0-7.9-3.7-11.9-11.1-12h-0.2c-7.3,0-11,4-11,12v16c0,7.9,7.9,17.5,23.8,28.9c15.9,11.3,23.8,24.9,23.8,40.8v22.3
			c0,24.8-12.2,37.2-36.5,37.2c-24.4-0.1-36.6-12.4-36.6-37.2v-23.8h25.5v23.8c0,8,3.7,12,11.2,12c7.4,0,11.1-4,11.1-12v-20.2
			c0-8.5-7.9-18.5-23.8-29.9c-15.9-11.3-23.8-25.1-23.8-41.4V104.5z"/>
		<path class="st2" d="M892.1,184.2l8.3,62.6h-25.7l-4.9-37.4h-26l-5,37.4H813l8.3-62.4l18-114.2h34.9L892.1,184.2z M866.4,184.2
			l-9.7-73.4l-9.7,73.4H866.4z"/>
		<path class="st2" d="M907.7,246.8V70.3h25.5v151.4h40.6v25.1H907.7z"/>
		<path class="st2" d="M980,70.3h66v25.1h-40.6v50.6h34.9v25.2h-34.9v50.6h40.6v25.1h-66V70.3z"/>
		<path class="st2" d="M1054.1,104.5c0-24.7,12.2-37.1,36.5-37.1c24.4,0,36.6,12.4,36.6,37.1v23.8h-25.5v-23.8
			c0-7.9-3.7-11.9-11.1-12h-0.2c-7.3,0-11,4-11,12v16c0,7.9,7.9,17.5,23.8,28.9c15.9,11.3,23.8,24.9,23.8,40.8v22.3
			c0,24.8-12.2,37.2-36.5,37.2c-24.4-0.1-36.6-12.4-36.6-37.2v-23.8h25.5v23.8c0,8,3.7,12,11.2,12c7.4,0,11.1-4,11.1-12v-20.2
			c0-8.5-7.9-18.5-23.8-29.9c-15.9-11.3-23.8-25.1-23.8-41.4V104.5z"/>
	</g>
	<g class="st1">
		<polygon class="st3" points="109,290.3 198.3,290.3 91.6,2.8 2.4,2.8 		"/>
		<linearGradient id="SVGID_1_" gradientUnits="userSpaceOnUse" x1="134.3311" y1="161.9801" x2="170.1906" y2="178.2798">
			<stop  offset="0" style="stop-color:#404041;stop-opacity:0"/>
			<stop  offset="0.9739" style="stop-color:#333133;stop-opacity:0.5"/>
			<stop  offset="1" style="stop-color:#323031"/>
		</linearGradient>
		<polygon class="st4" points="109,290.3 198.3,290.3 91.6,2.8 2.4,2.8 		"/>
		<polygon class="st3" points="198.3,290.3 109,290.3 215.7,2.8 304.9,2.8 		"/>
	</g>
	<g class="st1">
		<path class="st2" d="M431.1,70.3v102.4L407,70.3h-25.5V127l24.2,17.5c3.9,2.9,6.3,7.5,6.3,12.3c0,2.7-0.8,5.4-2.1,7.7l19.3,82.3
			h25.5V70.3H431.1z"/>
		<path class="st2" d="M405.7,169.1l-24.2,17.5v60.1H406V169C405.9,169,405.8,169.1,405.7,169.1z"/>
	</g>
	<radialGradient id="SVGID_2_" cx="381.5624" cy="156.3157" r="141.4843" gradientUnits="userSpaceOnUse">
		<stop  offset="0" style="stop-color:#F4DA95"/>
		<stop  offset="6.640629e-02" style="stop-color:#F9DC71"/>
		<stop  offset="0.5508" style="stop-color:#E6A32F"/>
		<stop  offset="1" style="stop-color:#DA6B52"/>
	</radialGradient>
	<path class="st5" d="M319.3,91.5c1.8,0,3.7,0.5,5.4,1.8l77.5,56.1c5.1,3.7,5.1,11.3,0,14.9l-77.5,56.1c-1.7,1.2-3.5,1.8-5.4,1.8
		c-4.8,0-9.2-3.8-9.2-9.2v-25.1h-65.7l23-61.9h42.7v-25.1C310.1,95.3,314.6,91.5,319.3,91.5"/>
</g>
<g class="st0">
	<g class="st1">
		<g>
			<path class="st6" d="M469.4,70.3h66v25.1h-40.6v50.6h34.9v25.2h-34.9v50.6h40.6v25.1h-66V70.3z"/>
			<path class="st6" d="M565.9,70.3l16.6,49.7l16.5-49.7h25.6l-29.3,88.3l29.3,88.3h-25.6l-16.5-49.7l-16.6,49.7h-25.6l29.3-88.3
				l-29.3-88.3H565.9z"/>
			<path class="st6" d="M701.8,70.3v25.1H678v151.4h-25.5V95.4h-23.8V70.3H701.8z"/>
			<path class="st6" d="M735.8,104.5c0-24.7,12.2-37.1,36.5-37.1c24.4,0,36.6,12.4,36.6,37.1v23.8h-25.5v-23.8
				c0-7.9-3.7-11.9-11.1-12h-0.2c-7.3,0-11,4-11,12v16c0,7.9,7.9,17.5,23.8,28.9c15.9,11.3,23.8,24.9,23.8,40.8v22.3
				c0,24.8-12.2,37.2-36.5,37.2c-24.4-0.1-36.6-12.4-36.6-37.2v-23.8h25.5v23.8c0,8,3.7,12,11.2,12c7.4,0,11.1-4,11.1-12v-20.2
				c0-8.5-7.9-18.5-23.8-29.9c-15.9-11.3-23.8-25.1-23.8-41.4V104.5z"/>
			<path class="st6" d="M892.6,184.2l8.3,62.6h-25.7l-4.9-37.4h-26l-5,37.4h-25.6l8.3-62.4l18-114.2h34.9L892.6,184.2z M866.8,184.2
				l-9.7-73.4l-9.7,73.4H866.8z"/>
			<path class="st6" d="M908.1,246.8V70.3h25.5v151.4h40.6v25.1H908.1z"/>
			<path class="st6" d="M980.4,70.3h66v25.1h-40.6v50.6h34.9v25.2h-34.9v50.6h40.6v25.1h-66V70.3z"/>
			<path class="st6" d="M1054.5,104.5c0-24.7,12.2-37.1,36.5-37.1c24.4,0,36.6,12.4,36.6,37.1v23.8h-25.5v-23.8
				c0-7.9-3.7-11.9-11.1-12h-0.2c-7.3,0-11,4-11,12v16c0,7.9,7.9,17.5,23.8,28.9c15.9,11.3,23.8,24.9,23.8,40.8v22.3
				c0,24.8-12.2,37.2-36.5,37.2c-24.4-0.1-36.6-12.4-36.6-37.2v-23.8h25.5v23.8c0,8,3.7,12,11.2,12c7.4,0,11.1-4,11.1-12v-20.2
				c0-8.5-7.9-18.5-23.8-29.9c-15.9-11.3-23.8-25.1-23.8-41.4V104.5z"/>
		</g>
		<g>
			<path class="st6" d="M431.5,70.3v102.4L407.4,70.3h-25.5V127l24.2,17.5c3.9,2.9,6.3,7.5,6.3,12.3c0,2.7-0.8,5.4-2.1,7.7
				l19.3,82.3h25.5V70.3H431.5z"/>
			<path class="st6" d="M406.2,169.1l-24.2,17.5v60.1h24.5V169C406.3,169,406.3,169.1,406.2,169.1z"/>
		</g>
		<path class="st6" d="M319.8,91.5c1.8,0,3.7,0.5,5.4,1.8l77.5,56.1c5.1,3.7,5.1,11.3,0,14.9l-77.5,56.1c-1.7,1.2-3.5,1.8-5.4,1.8
			c-4.8,0-9.2-3.8-9.2-9.2v-25.1h-65.7l23-61.9h42.7v-25.1C310.5,95.3,315,91.5,319.8,91.5"/>
	</g>
	<g class="st1">
		<g>
			<g>
				<g>
					<g>
						<g>
							<polygon class="st6" points="216.2,2.7 180.8,98.2 117.5,268.7 147,150.8 92.1,2.7 2.8,2.7 109.5,290.3 198.8,290.3 
								305.4,2.7 							"/>
						</g>
					</g>
				</g>
			</g>
		</g>
	</g>
</g>
<g>
	<g>
		<g>
			<path class="st7" d="M469.6,70.3h66v25.1H495v50.6H530v25.2H495v50.6h40.6v25.1h-66V70.3z"/>
			<path class="st7" d="M566,70.3l16.6,49.7l16.5-49.7h25.6l-29.3,88.3l29.3,88.3h-25.6l-16.5-49.7L566,246.8h-25.6l29.3-88.3
				l-29.3-88.3H566z"/>
			<path class="st7" d="M701.9,70.3v25.1h-23.8v151.4h-25.5V95.4h-23.8V70.3H701.9z"/>
			<path class="st7" d="M736,104.5c0-24.7,12.2-37.1,36.5-37.1c24.4,0,36.6,12.4,36.6,37.1v23.8h-25.5v-23.8c0-7.9-3.7-11.9-11.1-12
				h-0.2c-7.3,0-11,4-11,12v16c0,7.9,7.9,17.5,23.8,28.9c15.9,11.3,23.8,24.9,23.8,40.8v22.3c0,24.8-12.2,37.2-36.5,37.2
				c-24.4-0.1-36.6-12.4-36.6-37.2v-23.8h25.5v23.8c0,8,3.7,12,11.2,12c7.4,0,11.1-4,11.1-12v-20.2c0-8.5-7.9-18.5-23.8-29.9
				c-15.9-11.3-23.8-25.1-23.8-41.4V104.5z"/>
			<path class="st7" d="M892.7,184.2l8.3,62.6h-25.7l-4.9-37.4h-26l-5,37.4h-25.6l8.3-62.4l18-114.2h34.9L892.7,184.2z M867,184.2
				l-9.7-73.4l-9.7,73.4H867z"/>
			<path class="st7" d="M908.2,246.8V70.3h25.5v151.4h40.6v25.1H908.2z"/>
			<path class="st7" d="M980.6,70.3h66v25.1H1006v50.6h34.9v25.2H1006v50.6h40.6v25.1h-66V70.3z"/>
			<path class="st7" d="M1054.7,104.5c0-24.7,12.2-37.1,36.5-37.1c24.4,0,36.6,12.4,36.6,37.1v23.8h-25.5v-23.8
				c0-7.9-3.7-11.9-11.1-12h-0.2c-7.3,0-11,4-11,12v16c0,7.9,7.9,17.5,23.8,28.9c15.9,11.3,23.8,24.9,23.8,40.8v22.3
				c0,24.8-12.2,37.2-36.5,37.2c-24.4-0.1-36.6-12.4-36.6-37.2v-23.8h25.5v23.8c0,8,3.7,12,11.2,12c7.4,0,11.1-4,11.1-12v-20.2
				c0-8.5-7.9-18.5-23.8-29.9c-15.9-11.3-23.8-25.1-23.8-41.4V104.5z"/>
		</g>
		<g>
			<path class="st7" d="M431.6,70.3v102.4L407.5,70.3h-25.5V127l24.2,17.5c3.9,2.9,6.3,7.5,6.3,12.3c0,2.7-0.8,5.4-2.1,7.7
				l19.3,82.3h25.5V70.3H431.6z"/>
			<path class="st7" d="M406.3,169.1l-24.2,17.5v60.1h24.5V169C406.5,169,406.4,169.1,406.3,169.1z"/>
		</g>
		<path class="st7" d="M319.9,91.5c1.8,0,3.7,0.5,5.4,1.8l77.5,56.1c5.1,3.7,5.1,11.3,0,14.9l-77.5,56.1c-1.7,1.2-3.5,1.8-5.4,1.8
			c-4.8,0-9.2-3.8-9.2-9.2v-25.1h-65.7l23-61.9h42.7v-25.1C310.6,95.3,315.1,91.5,319.9,91.5"/>
	</g>
	<g>
		<g>
			<g>
				<g>
					<g>
						<g>
							<polygon class="st7" points="216.3,2.7 180.9,98.2 117.7,268.7 147.1,150.8 92.2,2.7 3,2.7 109.6,290.3 198.9,290.3 
								305.6,2.7 							"/>
						</g>
					</g>
				</g>
			</g>
		</g>
	</g>
</g>
</svg>
