<?xml version="1.0" encoding="utf-8"?>
<!-- Generator: Adobe Illustrator 24.0.1, SVG Export Plug-In . SVG Version: 6.00 Build 0)  -->
<svg version="1.1" id="Layer_1" xmlns="http://www.w3.org/2000/svg" xmlns:xlink="http://www.w3.org/1999/xlink" x="0px" y="0px"
	 viewBox="0 0 45 45" style="enable-background:new 0 0 45 45;" xml:space="preserve">
<style type="text/css">
	.st0{fill:#333333;}
	.st1{opacity:0.4;}
	.st2{fill:#FFFFFF;}
	.st3{opacity:0.55;}
	.st4{opacity:0.7;}
	.st5{opacity:0.85;}
</style>
<g>
	<rect x="0" y="0" class="st0" width="15" height="15"/>
	<rect x="30" y="0" class="st0" width="15" height="15"/>
	<rect x="15" y="0" class="st0" width="15" height="15"/>
	<rect x="30" y="15" class="st0" width="15" height="15"/>
	<rect x="15" y="15" class="st0" width="15" height="15"/>
	<rect x="0" y="15" class="st0" width="15" height="15"/>
	<rect x="30" y="30" class="st0" width="15" height="15"/>
	<rect x="15" y="30" class="st0" width="15" height="15"/>
	<rect x="0" y="30" class="st0" width="15" height="15"/>
</g>
<g class="st1">
	<rect x="5.9" y="7.38" class="st2" width="6.48" height="3.5"/>
</g>
<g class="st3">
	<rect x="19.26" y="7.38" class="st2" width="6.48" height="3.5"/>
</g>
<g class="st4">
	<rect x="32.62" y="7.38" class="st2" width="6.48" height="3.5"/>
</g>
<g class="st3">
	<rect x="5.9" y="20.74" class="st2" width="6.48" height="3.5"/>
</g>
<g class="st4">
	<rect x="19.26" y="20.74" class="st2" width="6.48" height="3.5"/>
</g>
<g class="st5">
	<rect x="32.62" y="20.74" class="st2" width="6.48" height="3.5"/>
</g>
<g class="st4">
	<rect x="5.9" y="34.1" class="st2" width="6.48" height="3.5"/>
</g>
<g class="st5">
	<rect x="19.26" y="34.1" class="st2" width="6.48" height="3.5"/>
</g>
<g>
	<rect x="32.62" y="34.1" class="st2" width="6.48" height="3.5"/>
</g>
</svg>
