<?xml version="1.0" encoding="utf-8"?>
<!-- Generator: Adobe Illustrator 24.0.1, SVG Export Plug-In . SVG Version: 6.00 Build 0)  -->
<svg version="1.1" id="Layer_1" xmlns="http://www.w3.org/2000/svg" xmlns:xlink="http://www.w3.org/1999/xlink" x="0px" y="0px"
	 viewBox="0 0 283.46 299.65" style="enable-background:new 0 0 283.46 299.65;" xml:space="preserve">
<style type="text/css">
	.st0{fill:#5CB3E6;}
	.st1{fill:#0074C7;}
	.st2{fill:#003088;}
</style>
<g>
	<path class="st0" d="M225.75,69.38c-7.74-0.58-15.71,0.25-23.69,2.49c-6.38,1.79-12.78,4.47-19.02,7.97
		c-7.84,4.4-13.47,9.01-15.91,11.15c-0.78,0.69-1.93,0.7-2.75,0.06c-17.62-13.75-34.85-19.22-51.25-16.25
		c-6.02,1.09-11.93,3.34-17.57,6.68c-4.51,2.67-8.86,6.05-12.93,10.03c-5.13,5.02-8.51,9.77-9.94,11.92
		c-0.48,0.72-1.34,1.06-2.19,0.9c-13.14-2.46-25.09-1.9-35.54,1.66c-8.67,2.96-16.34,7.98-22.79,14.92
		c-5.74,6.18-9.43,12.77-11.52,17.2c-0.22,0.47-0.43,0.93-0.63,1.37v24.93c0,1.63,2.12,2.24,3,0.86
		c7.59-11.89,29.89-38.35,70.54-21.44c0.92,0.38,1.98,0.08,2.53-0.74c5.24-7.76,32.8-43.48,79.08-14.6c0.96,0.6,2.22,0.35,2.83-0.6
		c4.48-6.94,23.42-32.35,60.94-32.78c33.99-0.39,55.22,22.06,62.06,30.61c0.81,1.01,2.42,0.43,2.42-0.86v-20.28
		C266.11,82.8,246.71,70.96,225.75,69.38z"/>
	<path class="st1" d="M255.79,54.93c-9.81-4.91-20.68-7.4-32.31-7.4c-0.05,0-0.09,0-0.14,0c-10.39,0.02-19.47,2.06-25.26,3.77
		c-4.16,1.23-7.27,2.47-8.89,3.17c-0.73,0.32-1.57,0.09-2.05-0.55c-2-2.65-7.66-9.48-16.99-15.48c-6.94-4.47-14.54-7.61-22.56-9.34
		c-10.03-2.17-20.77-2.13-31.92,0.12c-9.32,1.88-18.14,5.46-26.23,10.64C82.95,44,76.94,49.18,71.54,55.23
		c-7.14,8.01-11.29,15.5-12.81,18.48c-0.39,0.76-1.27,1.12-2.08,0.86c-9.98-3.19-19.22-3.98-27.5-2.34
		c-6.95,1.38-13.23,4.45-18.68,9.15c-4.85,4.18-8.12,8.88-10.01,12.1c-0.15,0.25-0.28,0.49-0.42,0.72v43.62v1.67
		c0.2-0.44,0.4-0.9,0.63-1.37c2.09-4.44,5.78-11.03,11.52-17.2c6.45-6.94,14.12-11.96,22.79-14.92c10.45-3.56,22.4-4.12,35.54-1.66
		c0.85,0.16,1.71-0.18,2.19-0.9c1.43-2.15,4.81-6.9,9.94-11.92c4.07-3.98,8.42-7.36,12.93-10.03c5.64-3.34,11.55-5.59,17.57-6.68
		c16.4-2.97,33.63,2.49,51.25,16.25c0.82,0.64,1.97,0.63,2.75-0.06c2.43-2.14,8.06-6.75,15.91-11.15c6.24-3.5,12.64-6.18,19.02-7.97
		c7.98-2.23,15.95-3.07,23.69-2.49c20.97,1.58,40.36,13.42,57.69,35.2v-1.73V78.82C275.52,68.2,266.25,60.17,255.79,54.93z"/>
	<path class="st2" d="M0.03,0v92.41v1.79c0.13-0.24,0.27-0.48,0.42-0.72c1.89-3.21,5.17-7.92,10.01-12.1
		c5.45-4.69,11.73-7.77,18.68-9.15c8.28-1.64,17.52-0.85,27.5,2.34c0.81,0.26,1.7-0.1,2.08-0.86c1.52-2.98,5.68-10.46,12.81-18.48
		C76.94,49.18,82.95,44,89.43,39.86c8.09-5.18,16.91-8.76,26.23-10.64c11.15-2.25,21.89-2.29,31.92-0.12
		c8.02,1.73,15.61,4.88,22.56,9.34c9.34,6,15,12.83,16.99,15.48c0.48,0.64,1.32,0.86,2.05,0.55c1.63-0.7,4.73-1.94,8.89-3.17
		c5.79-1.71,14.87-3.76,25.26-3.77c0.05,0,0.09,0,0.14,0c11.63,0,22.49,2.49,32.31,7.4c10.46,5.24,19.73,13.26,27.65,23.89V77V0
		H0.03z"/>
	<g>
		<rect x="32.03" y="164.87" class="st2" width="14.23" height="13.47"/>
		<rect x="32.03" y="188.45" class="st2" width="14.23" height="62.76"/>
		<path class="st2" d="M101.49,162.92h14.29v86.52h-14.29v-6.45c-5.61,5.48-11.95,8.22-19.04,8.22c-8.43,0-15.43-3.08-21-9.23
			c-5.52-6.28-8.28-14.12-8.28-23.53c0-9.19,2.76-16.86,8.28-23.02c5.48-6.2,12.37-9.3,20.68-9.3c7.21,0,13.66,2.95,19.35,8.85
			V162.92z M67.96,218.48c0,5.36,1.44,9.73,4.31,13.1c2.95,3.41,6.66,5.11,11.15,5.11c4.79,0,8.66-1.65,11.61-4.94
			c2.95-3.41,4.42-7.74,4.42-12.98c0-5.25-1.48-9.57-4.42-12.98c-2.95-3.33-6.78-5-11.49-5c-4.44,0-8.16,1.69-11.15,5.06
			C69.43,209.25,67.96,213.46,67.96,218.48z"/>
		<path class="st2" d="M181.78,221.99h-44.14c0.38,5.06,2.02,9.09,4.93,12.08c2.91,2.95,6.64,4.43,11.19,4.43
			c3.54,0,6.47-0.84,8.79-2.53c2.28-1.69,4.87-4.81,7.78-9.36l12.02,6.7c-1.86,3.16-3.82,5.87-5.88,8.13
			c-2.07,2.26-4.28,4.11-6.64,5.57c-2.36,1.46-4.91,2.52-7.65,3.19c-2.74,0.67-5.71,1.01-8.92,1.01c-9.19,0-16.57-2.95-22.13-8.85
			c-5.57-5.94-8.35-13.83-8.35-23.65c0-9.74,2.7-17.62,8.09-23.65c5.44-5.94,12.65-8.92,21.63-8.92c9.06,0,16.23,2.89,21.5,8.66
			c5.23,5.73,7.84,13.68,7.84,23.84L181.78,221.99z M167.17,210.36c-1.98-7.59-6.77-11.38-14.36-11.38c-1.73,0-3.35,0.26-4.87,0.79
			c-1.52,0.53-2.9,1.29-4.14,2.28c-1.24,0.99-2.31,2.18-3.19,3.57c-0.89,1.39-1.56,2.97-2.02,4.74L167.17,210.36z"/>
		<path class="st2" d="M237.15,187.84h14.29v61.6h-14.29v-6.45c-5.86,5.48-12.16,8.22-18.91,8.22c-8.52,0-15.56-3.08-21.12-9.23
			c-5.52-6.28-8.28-14.12-8.28-23.53c0-9.23,2.76-16.93,8.28-23.08c5.52-6.16,12.44-9.23,20.74-9.23c7.17,0,13.6,2.95,19.29,8.85
			V187.84z M204.29,218.48c0,5.36,1.44,9.73,4.31,13.1c2.95,3.41,6.66,5.11,11.15,5.11c4.79,0,8.66-1.65,11.61-4.94
			c2.95-3.41,4.42-7.74,4.42-12.98c0-5.25-1.48-9.57-4.42-12.98c-2.95-3.33-6.78-5-11.49-5c-4.44,0-8.16,1.69-11.15,5.06
			C205.76,209.25,204.29,213.46,204.29,218.48z"/>
	</g>
	<g>
		<path class="st2" d="M6.7,294.66H5.14v-13.97H0v-1.39h11.84v1.39H6.7V294.66z"/>
		<path class="st2" d="M17.87,293.27h8.22v1.39h-9.78v-15.36h9.52v1.39h-7.96v5.27h7.44v1.39h-7.44V293.27z"/>
		<path class="st2" d="M32.88,286.2h0.02l7.31-6.9h2.23l-7.74,6.96l8.18,8.39h-2.3l-7.68-8.18h-0.02v8.18h-1.56v-15.36h1.56V286.2z"
			/>
		<path class="st2" d="M57.99,292.38h0.04v-13.08h1.56v15.36h-1.95l-8.94-13.21h-0.04v13.21h-1.56v-15.36h1.95L57.99,292.38z"/>
		<path class="st2" d="M81.03,286.98c0,1.17-0.2,2.25-0.61,3.23c-0.4,0.98-0.97,1.83-1.68,2.55c-0.72,0.72-1.56,1.28-2.54,1.68
			c-0.98,0.4-2.04,0.61-3.18,0.61s-2.2-0.2-3.18-0.61c-0.98-0.4-1.82-0.97-2.54-1.68c-0.72-0.72-1.28-1.57-1.68-2.55
			c-0.4-0.98-0.61-2.06-0.61-3.23c0-1.17,0.2-2.25,0.61-3.23c0.4-0.98,0.97-1.83,1.68-2.55s1.56-1.28,2.54-1.68
			c0.98-0.4,2.04-0.61,3.18-0.61s2.2,0.2,3.18,0.61c0.98,0.41,1.82,0.97,2.54,1.68s1.28,1.57,1.68,2.55
			C80.82,284.74,81.03,285.81,81.03,286.98z M79.38,286.99c0-0.89-0.14-1.75-0.43-2.55c-0.29-0.81-0.71-1.52-1.26-2.13
			c-0.55-0.61-1.22-1.1-2.01-1.46c-0.79-0.36-1.67-0.54-2.66-0.54s-1.87,0.18-2.66,0.54c-0.79,0.36-1.46,0.85-2.01,1.46
			c-0.55,0.61-0.97,1.32-1.26,2.13c-0.29,0.81-0.43,1.66-0.43,2.55c0,0.9,0.14,1.75,0.43,2.56c0.29,0.81,0.71,1.51,1.26,2.12
			c0.55,0.61,1.22,1.09,2.01,1.45c0.79,0.36,1.67,0.54,2.66,0.54s1.87-0.18,2.66-0.54c0.79-0.36,1.46-0.84,2.01-1.45
			c0.55-0.61,0.97-1.31,1.26-2.12C79.23,288.74,79.38,287.89,79.38,286.99z"/>
		<path class="st2" d="M88.01,293.27h7.16v1.39h-8.72v-15.36h1.56V293.27z"/>
		<path class="st2" d="M114.21,286.98c0,1.17-0.2,2.25-0.61,3.23s-0.97,1.83-1.68,2.55c-0.72,0.72-1.56,1.28-2.54,1.68
			s-2.04,0.61-3.18,0.61s-2.2-0.2-3.18-0.61c-0.98-0.4-1.82-0.97-2.54-1.68c-0.72-0.72-1.28-1.57-1.68-2.55
			c-0.4-0.98-0.61-2.06-0.61-3.23c0-1.17,0.2-2.25,0.61-3.23c0.4-0.98,0.97-1.83,1.68-2.55c0.72-0.72,1.56-1.28,2.54-1.68
			c0.98-0.4,2.04-0.61,3.18-0.61s2.2,0.2,3.18,0.61c0.98,0.41,1.82,0.97,2.54,1.68c0.72,0.72,1.28,1.57,1.68,2.55
			C114.01,284.74,114.21,285.81,114.21,286.98z M112.56,286.99c0-0.89-0.14-1.75-0.43-2.55c-0.29-0.81-0.71-1.52-1.26-2.13
			c-0.55-0.61-1.22-1.1-2.01-1.46c-0.79-0.36-1.67-0.54-2.66-0.54c-0.98,0-1.87,0.18-2.66,0.54c-0.79,0.36-1.46,0.85-2.01,1.46
			c-0.55,0.61-0.97,1.32-1.26,2.13c-0.29,0.81-0.43,1.66-0.43,2.55c0,0.9,0.14,1.75,0.43,2.56c0.29,0.81,0.71,1.51,1.26,2.12
			c0.55,0.61,1.22,1.09,2.01,1.45c0.79,0.36,1.67,0.54,2.66,0.54c0.98,0,1.87-0.18,2.66-0.54c0.79-0.36,1.46-0.84,2.01-1.45
			c0.55-0.61,0.97-1.31,1.26-2.12C112.42,288.74,112.56,287.89,112.56,286.99z"/>
		<path class="st2" d="M118.81,291.52c0.12,0.61,0.39,1.12,0.81,1.53c0.43,0.41,0.99,0.62,1.68,0.62c0.53,0,0.97-0.1,1.32-0.29
			s0.63-0.46,0.84-0.79c0.21-0.33,0.35-0.71,0.43-1.14c0.08-0.43,0.12-0.87,0.12-1.33v-10.81h1.56v10.93c0,0.51-0.06,1.04-0.16,1.61
			s-0.31,1.08-0.62,1.56c-0.3,0.48-0.72,0.87-1.26,1.18c-0.53,0.31-1.22,0.47-2.06,0.47c-1.11,0-2.03-0.3-2.76-0.89
			c-0.72-0.59-1.18-1.34-1.37-2.25L118.81,291.52z"/>
		<path class="st2" d="M133.53,276.27c0,0.3-0.11,0.55-0.33,0.75c-0.22,0.19-0.46,0.29-0.72,0.29c-0.26,0-0.5-0.1-0.71-0.29
			c-0.22-0.19-0.33-0.44-0.33-0.75c0-0.3,0.11-0.55,0.33-0.75c0.22-0.19,0.46-0.29,0.71-0.29c0.26,0,0.5,0.1,0.72,0.29
			C133.43,275.72,133.53,275.97,133.53,276.27z M133.25,294.66h-1.56v-15.36h1.56V294.66z"/>
		<path class="st2" d="M160.01,292.17c-0.26,0.39-0.58,0.76-0.94,1.11c-0.37,0.35-0.79,0.65-1.28,0.92
			c-0.49,0.26-1.02,0.47-1.61,0.63c-0.58,0.15-1.22,0.23-1.92,0.23l-0.76,1.24c0.19-0.06,0.44-0.09,0.76-0.09
			c0.43,0,0.84,0.13,1.21,0.39c0.38,0.26,0.57,0.65,0.57,1.17c0,0.36-0.08,0.67-0.24,0.91c-0.16,0.25-0.36,0.44-0.61,0.59
			c-0.25,0.14-0.52,0.25-0.82,0.3c-0.3,0.06-0.6,0.09-0.89,0.09c-0.29,0-0.62-0.04-1.01-0.11c-0.38-0.07-0.73-0.18-1.03-0.33
			l0.35-0.78c0.25,0.11,0.5,0.19,0.76,0.24c0.26,0.04,0.53,0.07,0.8,0.07c0.11,0,0.25-0.01,0.41-0.04c0.16-0.03,0.31-0.08,0.46-0.16
			c0.14-0.08,0.27-0.18,0.37-0.3c0.1-0.12,0.15-0.27,0.15-0.44c0-0.29-0.1-0.5-0.31-0.64c-0.21-0.14-0.5-0.21-0.86-0.21
			c-0.32,0-0.63,0.06-0.93,0.17l-0.39-0.32l1.13-1.78c-1.04-0.1-2-0.37-2.87-0.81c-0.87-0.44-1.63-1.01-2.26-1.71
			s-1.12-1.52-1.46-2.46c-0.35-0.94-0.52-1.95-0.52-3.04c0-1.17,0.2-2.25,0.61-3.23c0.4-0.98,0.97-1.83,1.68-2.55
			s1.56-1.28,2.54-1.68c0.98-0.4,2.04-0.61,3.18-0.61c0.56,0,1.12,0.06,1.66,0.18c0.54,0.12,1.05,0.28,1.53,0.5
			c0.48,0.21,0.91,0.47,1.3,0.77c0.39,0.3,0.72,0.64,0.97,1.01l-1.3,0.95c-0.16-0.25-0.37-0.49-0.64-0.74s-0.58-0.46-0.94-0.65
			c-0.36-0.19-0.76-0.34-1.18-0.46c-0.43-0.12-0.89-0.17-1.38-0.17c-1,0-1.89,0.18-2.68,0.54c-0.79,0.36-1.46,0.85-2.01,1.46
			c-0.55,0.61-0.97,1.32-1.26,2.13c-0.29,0.81-0.43,1.66-0.43,2.55s0.15,1.74,0.44,2.55c0.29,0.81,0.72,1.52,1.27,2.13
			c0.55,0.61,1.22,1.1,2.01,1.46c0.79,0.36,1.67,0.54,2.66,0.54c0.88,0,1.72-0.18,2.52-0.54c0.79-0.36,1.46-0.94,2-1.73
			L160.01,292.17z"/>
		<path class="st2" d="M179.79,286.98c0,1.17-0.2,2.25-0.61,3.23s-0.97,1.83-1.68,2.55c-0.72,0.72-1.56,1.28-2.54,1.68
			s-2.04,0.61-3.18,0.61s-2.2-0.2-3.18-0.61c-0.98-0.4-1.82-0.97-2.54-1.68c-0.72-0.72-1.28-1.57-1.68-2.55
			c-0.4-0.98-0.61-2.06-0.61-3.23c0-1.17,0.2-2.25,0.61-3.23c0.4-0.98,0.97-1.83,1.68-2.55s1.56-1.28,2.54-1.68
			c0.98-0.4,2.04-0.61,3.18-0.61s2.2,0.2,3.18,0.61c0.98,0.41,1.82,0.97,2.54,1.68s1.28,1.57,1.68,2.55
			C179.59,284.74,179.79,285.81,179.79,286.98z M178.14,286.99c0-0.89-0.14-1.75-0.43-2.55c-0.29-0.81-0.71-1.52-1.26-2.13
			c-0.55-0.61-1.22-1.1-2.01-1.46c-0.79-0.36-1.67-0.54-2.66-0.54c-0.98,0-1.87,0.18-2.66,0.54c-0.79,0.36-1.46,0.85-2.01,1.46
			c-0.55,0.61-0.97,1.32-1.26,2.13c-0.29,0.81-0.43,1.66-0.43,2.55c0,0.9,0.14,1.75,0.43,2.56c0.29,0.81,0.71,1.51,1.26,2.12
			c0.55,0.61,1.22,1.09,2.01,1.45c0.79,0.36,1.67,0.54,2.66,0.54c0.98,0,1.87-0.18,2.66-0.54c0.79-0.36,1.46-0.84,2.01-1.45
			c0.55-0.61,0.97-1.31,1.26-2.12C178,288.74,178.14,287.89,178.14,286.99z M168.6,276.29c0-0.29,0.1-0.55,0.3-0.77
			c0.2-0.22,0.47-0.34,0.8-0.34s0.6,0.11,0.8,0.34c0.2,0.22,0.3,0.48,0.3,0.77c0,0.29-0.1,0.54-0.3,0.77
			c-0.2,0.22-0.47,0.34-0.8,0.34s-0.6-0.11-0.8-0.34C168.7,276.84,168.6,276.58,168.6,276.29z M172.77,276.29
			c0-0.29,0.1-0.55,0.3-0.77c0.2-0.22,0.47-0.34,0.8-0.34s0.6,0.11,0.8,0.34c0.2,0.22,0.3,0.48,0.3,0.77c0,0.29-0.1,0.54-0.3,0.77
			c-0.2,0.22-0.47,0.34-0.8,0.34s-0.6-0.11-0.8-0.34C172.87,276.84,172.77,276.58,172.77,276.29z"/>
		<path class="st2" d="M194.26,280.61l-8.96,12.67h9.09v1.39h-11.06v-1.3l8.98-12.67h-8.74v-1.39h10.69V280.61z"/>
		<path class="st2" d="M204.93,295.05c-1.16,0-2.1-0.2-2.84-0.6c-0.74-0.4-1.32-0.9-1.76-1.51c-0.43-0.61-0.73-1.27-0.9-1.98
			c-0.17-0.72-0.25-1.39-0.25-2.03v-9.63h1.56v9.46c0,0.62,0.07,1.22,0.22,1.81c0.14,0.58,0.38,1.11,0.71,1.56
			c0.33,0.46,0.76,0.82,1.29,1.11c0.54,0.28,1.19,0.42,1.97,0.42c0.78,0,1.44-0.14,1.97-0.42c0.54-0.28,0.97-0.65,1.29-1.11
			c0.33-0.46,0.56-0.98,0.71-1.56c0.14-0.59,0.22-1.19,0.22-1.81v-9.46h1.56v9.63c0,0.64-0.08,1.31-0.25,2.03
			c-0.17,0.72-0.47,1.38-0.9,1.98c-0.43,0.61-1.02,1.11-1.77,1.51C207.02,294.85,206.07,295.05,204.93,295.05z M201.76,276.29
			c0-0.29,0.1-0.55,0.3-0.77c0.2-0.22,0.47-0.34,0.8-0.34s0.6,0.11,0.8,0.34c0.2,0.22,0.3,0.48,0.3,0.77c0,0.29-0.1,0.54-0.3,0.77
			c-0.2,0.22-0.47,0.34-0.8,0.34s-0.6-0.11-0.8-0.34C201.87,276.84,201.76,276.58,201.76,276.29z M205.93,276.29
			c0-0.29,0.1-0.55,0.3-0.77c0.2-0.22,0.47-0.34,0.8-0.34c0.33,0,0.6,0.11,0.8,0.34c0.2,0.22,0.3,0.48,0.3,0.77
			c0,0.29-0.1,0.54-0.3,0.77c-0.2,0.22-0.47,0.34-0.8,0.34c-0.33,0-0.6-0.11-0.8-0.34C206.03,276.84,205.93,276.58,205.93,276.29z"
			/>
		<path class="st2" d="M224.43,292.02h0.02l5.14-12.71h2.38v15.36h-1.56v-13.34h-0.04l-5.55,13.34H224l-5.55-13.34h-0.04v13.34
			h-1.56v-15.36h2.38L224.43,292.02z"/>
		<path class="st2" d="M239.78,293.27h7.16v1.39h-8.72v-15.36h1.56V293.27z"/>
		<path class="st2" d="M253.01,293.27h8.22v1.39h-9.78v-15.36h9.52v1.39h-7.96v5.27h7.44v1.39h-7.44V293.27z"/>
		<path class="st2" d="M268.02,294.66h-1.56v-15.36h4.51c0.75,0,1.45,0.07,2.09,0.22c0.64,0.15,1.2,0.38,1.67,0.71
			c0.47,0.33,0.83,0.75,1.1,1.27c0.26,0.52,0.39,1.16,0.39,1.91c0,0.57-0.1,1.08-0.3,1.54c-0.2,0.46-0.48,0.86-0.82,1.21
			c-0.35,0.34-0.76,0.61-1.24,0.81c-0.48,0.2-1,0.33-1.56,0.39l4.49,7.31h-1.91l-4.25-7.18h-2.6V294.66z M268.02,286.14h2.71
			c1.26,0,2.23-0.23,2.91-0.68c0.68-0.46,1.02-1.14,1.02-2.05c0-0.5-0.09-0.93-0.28-1.28c-0.19-0.35-0.45-0.63-0.78-0.85
			c-0.33-0.22-0.74-0.38-1.22-0.48c-0.48-0.1-1-0.15-1.58-0.15h-2.78V286.14z"/>
		<path class="st2" d="M283.46,276.27c0,0.3-0.11,0.55-0.33,0.75c-0.22,0.19-0.46,0.29-0.72,0.29c-0.26,0-0.5-0.1-0.71-0.29
			c-0.22-0.19-0.33-0.44-0.33-0.75c0-0.3,0.11-0.55,0.33-0.75c0.22-0.19,0.46-0.29,0.71-0.29c0.26,0,0.5,0.1,0.72,0.29
			C283.36,275.72,283.46,275.97,283.46,276.27z M283.18,294.66h-1.56v-15.36h1.56V294.66z"/>
	</g>
</g>
</svg>
